<svg width="296" height="172" viewBox="0 0 296 172" fill="none" xmlns="http://www.w3.org/2000/svg">
<g filter="url(#filter0_d)">
<path d="M48 41.4424C48 38.681 50.2386 36.4424 53 36.4424H243C245.761 36.4424 248 38.681 248 41.4424V92.4424C248 95.2038 245.761 97.4424 243 97.4424H93.2206C91.462 97.4424 89.8326 98.3663 88.9298 99.8755L82.0103 111.442L74.176 99.672C73.249 98.2792 71.6868 97.4424 70.0137 97.4424H53C50.2386 97.4424 48 95.2038 48 92.4424V41.4424Z" fill="white"/>
</g>
<path d="M65.0625 60.4424C67.9432 60.4424 69.5682 58.6512 69.5682 55.6966C69.5682 52.7606 67.9432 50.9878 65.1918 50.9878H62.1449V60.4424H65.0625ZM63.2898 59.4268V52.0035H65.1179C67.3338 52.0035 68.4602 53.4069 68.4602 55.6966C68.4602 58.0049 67.3338 59.4268 64.9886 59.4268H63.2898ZM74.2216 60.5901C76.142 60.5901 77.4347 59.1313 77.4347 56.9339C77.4347 54.718 76.142 53.2591 74.2216 53.2591C72.3011 53.2591 71.0085 54.718 71.0085 56.9339C71.0085 59.1313 72.3011 60.5901 74.2216 60.5901ZM74.2216 59.6114C72.7628 59.6114 72.098 58.3557 72.098 56.9339C72.098 55.512 72.7628 54.2378 74.2216 54.2378C75.6804 54.2378 76.3452 55.512 76.3452 56.9339C76.3452 58.3557 75.6804 59.6114 74.2216 59.6114ZM82.0708 60.5901C83.5111 60.5901 84.5637 59.8699 84.896 58.7989L83.8435 58.5035C83.5665 59.2421 82.9248 59.6114 82.0708 59.6114C80.792 59.6114 79.9102 58.7851 79.8595 57.2662H85.0068V56.8046C85.0068 54.164 83.4372 53.2591 81.96 53.2591C80.0395 53.2591 78.7654 54.7733 78.7654 56.9523C78.7654 59.1313 80.021 60.5901 82.0708 60.5901ZM79.8595 56.3245C79.9333 55.2211 80.7135 54.2378 81.96 54.2378C83.1418 54.2378 83.8989 55.1242 83.8989 56.3245H79.8595ZM91.6869 54.9395C91.3453 53.9331 90.5789 53.2591 89.1755 53.2591C87.6798 53.2591 86.5718 54.1086 86.5718 55.3089C86.5718 56.2876 87.1535 56.9431 88.4553 57.2478L89.6372 57.5248C90.3527 57.691 90.6897 58.0326 90.6897 58.5219C90.6897 59.1313 90.0434 59.6299 89.0278 59.6299C88.1368 59.6299 87.5782 59.2467 87.3843 58.485L86.3502 58.7435C86.6041 59.9484 87.5967 60.5901 89.0463 60.5901C90.6943 60.5901 91.8161 59.6899 91.8161 58.4665C91.8161 57.4786 91.1975 56.8554 89.9326 56.5461L88.8801 56.2876C88.0399 56.0798 87.6613 55.7982 87.6613 55.2535C87.6613 54.6441 88.3076 54.2009 89.1755 54.2009C90.1265 54.2009 90.5189 54.7272 90.7082 55.2165L91.6869 54.9395ZM97.8141 63.083C98.7974 63.083 99.4945 62.5613 99.9007 61.4765L102.92 53.3699L101.729 53.3515L99.7715 59.002H99.6976L97.7402 53.3515H96.5584L99.1806 60.4793L98.9775 61.0333C98.5897 62.0951 98.0911 62.1966 97.2971 61.9935L97.0201 62.9537C97.1309 63.0091 97.4448 63.083 97.8141 63.083ZM106.988 60.5901C108.909 60.5901 110.201 59.1313 110.201 56.9339C110.201 54.718 108.909 53.2591 106.988 53.2591C105.068 53.2591 103.775 54.718 103.775 56.9339C103.775 59.1313 105.068 60.5901 106.988 60.5901ZM106.988 59.6114C105.529 59.6114 104.865 58.3557 104.865 56.9339C104.865 55.512 105.529 54.2378 106.988 54.2378C108.447 54.2378 109.112 55.512 109.112 56.9339C109.112 58.3557 108.447 59.6114 106.988 59.6114ZM116.333 57.5432C116.333 58.8728 115.317 59.4822 114.505 59.4822C113.6 59.4822 112.954 58.8174 112.954 57.7833V53.3515H111.864V57.8572C111.864 59.6668 112.825 60.5347 114.154 60.5347C115.225 60.5347 115.927 59.9623 116.259 59.2421H116.333V60.4424H117.423V53.3515H116.333V57.5432ZM119.418 60.4424H120.508V55.9552C120.508 54.9949 121.265 54.2932 122.299 54.2932C122.59 54.2932 122.89 54.3486 122.964 54.3671V53.2591C122.839 53.2499 122.553 53.2407 122.391 53.2407C121.542 53.2407 120.803 53.7208 120.544 54.4225H120.471V53.3515H119.418V60.4424ZM129.001 56.1768C129.001 54.9395 129.79 54.2378 130.866 54.2378C131.891 54.2378 132.509 54.8841 132.509 56.0106V60.4424H133.599V55.9367C133.599 54.1132 132.629 53.2591 131.18 53.2591C130.062 53.2591 129.425 53.7254 129.093 54.4594H129.001V50.9878H127.911V60.4424H129.001V56.1768ZM138.473 60.5901C140.393 60.5901 141.686 59.1313 141.686 56.9339C141.686 54.718 140.393 53.2591 138.473 53.2591C136.552 53.2591 135.259 54.718 135.259 56.9339C135.259 59.1313 136.552 60.5901 138.473 60.5901ZM138.473 59.6114C137.014 59.6114 136.349 58.3557 136.349 56.9339C136.349 55.512 137.014 54.2378 138.473 54.2378C139.931 54.2378 140.596 55.512 140.596 56.9339C140.596 58.3557 139.931 59.6114 138.473 59.6114ZM143.349 60.4424H144.438V56.0106C144.438 54.9719 145.195 54.2378 146.045 54.2378C146.871 54.2378 147.448 54.778 147.448 55.5858V60.4424H148.556V55.8259C148.556 54.9118 149.129 54.2378 150.126 54.2378C150.901 54.2378 151.566 54.6487 151.566 55.6966V60.4424H152.656V55.6966C152.656 54.0301 151.76 53.2591 150.495 53.2591C149.479 53.2591 148.736 53.7254 148.371 54.4594H148.298C147.947 53.7023 147.328 53.2591 146.396 53.2591C145.472 53.2591 144.789 53.7023 144.494 54.4594H144.401V53.3515H143.349V60.4424ZM157.621 60.5901C159.061 60.5901 160.113 59.8699 160.446 58.7989L159.393 58.5035C159.116 59.2421 158.475 59.6114 157.621 59.6114C156.342 59.6114 155.46 58.7851 155.409 57.2662H160.557V56.8046C160.557 54.164 158.987 53.2591 157.51 53.2591C155.589 53.2591 154.315 54.7733 154.315 56.9523C154.315 59.1313 155.571 60.5901 157.621 60.5901ZM155.409 56.3245C155.483 55.2211 156.263 54.2378 157.51 54.2378C158.692 54.2378 159.449 55.1242 159.449 56.3245H155.409ZM165.87 60.4424H166.96V57.7879L167.721 57.0816L170.376 60.4424H171.761L168.543 56.3799L171.539 53.3515H170.191L167.089 56.5091H166.96V50.9878H165.87V60.4424ZM174.031 56.1768C174.031 54.9395 174.797 54.2378 175.841 54.2378C176.852 54.2378 177.466 54.898 177.466 56.0106V60.4424H178.555V55.9367C178.555 54.127 177.59 53.2591 176.155 53.2591C175.084 53.2591 174.419 53.7393 174.086 54.4594H173.994V53.3515H172.941V60.4424H174.031V56.1768ZM183.427 60.5901C185.347 60.5901 186.64 59.1313 186.64 56.9339C186.64 54.718 185.347 53.2591 183.427 53.2591C181.506 53.2591 180.214 54.718 180.214 56.9339C180.214 59.1313 181.506 60.5901 183.427 60.5901ZM183.427 59.6114C181.968 59.6114 181.303 58.3557 181.303 56.9339C181.303 55.512 181.968 54.2378 183.427 54.2378C184.885 54.2378 185.55 55.512 185.55 56.9339C185.55 58.3557 184.885 59.6114 183.427 59.6114ZM189.668 60.4424H190.739L192.29 54.9949H192.401L193.952 60.4424H195.023L197.184 53.3515H196.039L194.506 58.762H194.432L192.937 53.3515H191.773L190.259 58.7805H190.185L188.653 53.3515H187.508L189.668 60.4424ZM64.0838 80.6086C65.321 80.6086 65.9673 79.9438 66.1889 79.4822H66.2443V80.4424H67.3338V75.7705C67.3338 73.5177 65.6165 73.2591 64.7116 73.2591C63.6406 73.2591 62.4219 73.6285 61.8679 74.9211L62.902 75.2904C63.142 74.7733 63.7099 74.2194 64.7486 74.2194C65.7504 74.2194 66.2443 74.7503 66.2443 75.6597V75.6966C66.2443 76.2229 65.7088 76.1768 64.4162 76.343C63.1005 76.5138 61.6648 76.8046 61.6648 78.4296C61.6648 79.8145 62.7358 80.6086 64.0838 80.6086ZM64.25 79.6299C63.3821 79.6299 62.7543 79.2421 62.7543 78.485C62.7543 77.654 63.5114 77.3955 64.3608 77.2847C64.8224 77.2293 66.0597 77.1001 66.2443 76.8785V77.8756C66.2443 78.762 65.5426 79.6299 64.25 79.6299ZM69.4701 80.4424H70.5226V79.3529H70.6519C70.892 79.7407 71.3536 80.5901 72.7201 80.5901C74.4928 80.5901 75.73 79.1682 75.73 76.9154C75.73 74.681 74.4928 73.2591 72.7016 73.2591C71.3167 73.2591 70.892 74.1086 70.6519 74.4779H70.5596V70.9878H69.4701V80.4424ZM70.5411 76.8969C70.5411 75.3089 71.2428 74.2378 72.5724 74.2378C73.9573 74.2378 74.6405 75.4012 74.6405 76.8969C74.6405 78.4111 73.9388 79.6114 72.5724 79.6114C71.2613 79.6114 70.5411 78.5035 70.5411 76.8969ZM80.2773 80.5901C82.1977 80.5901 83.4903 79.1313 83.4903 76.9339C83.4903 74.718 82.1977 73.2591 80.2773 73.2591C78.3568 73.2591 77.0642 74.718 77.0642 76.9339C77.0642 79.1313 78.3568 80.5901 80.2773 80.5901ZM80.2773 79.6114C78.8184 79.6114 78.1537 78.3557 78.1537 76.9339C78.1537 75.512 78.8184 74.2378 80.2773 74.2378C81.7361 74.2378 82.4008 75.512 82.4008 76.9339C82.4008 78.3557 81.7361 79.6114 80.2773 79.6114ZM89.6222 77.5432C89.6222 78.8728 88.6065 79.4822 87.794 79.4822C86.8892 79.4822 86.2429 78.8174 86.2429 77.7833V73.3515H85.1534V77.8572C85.1534 79.6668 86.1136 80.5347 87.4432 80.5347C88.5142 80.5347 89.2159 79.9623 89.5483 79.2421H89.6222V80.4424H90.7116V73.3515H89.6222V77.5432ZM95.7909 73.3515H94.2767V71.6526H93.1872V73.3515H92.1162V74.2748H93.1872V78.7066C93.1872 79.9438 94.1844 80.5347 95.1077 80.5347C95.5139 80.5347 95.7725 80.4608 95.9202 80.4055L95.6986 79.4268C95.6063 79.4452 95.4585 79.4822 95.2185 79.4822C94.7384 79.4822 94.2767 79.3344 94.2767 78.4111V74.2748H95.7909V73.3515ZM102.176 76.1768C102.176 74.9395 102.965 74.2378 104.041 74.2378C105.065 74.2378 105.684 74.8841 105.684 76.0106V80.4424H106.774V75.9367C106.774 74.1132 105.804 73.2591 104.354 73.2591C103.237 73.2591 102.6 73.7254 102.268 74.4594H102.176V70.9878H101.086V80.4424H102.176V76.1768ZM111.647 80.5901C113.568 80.5901 114.86 79.1313 114.86 76.9339C114.86 74.718 113.568 73.2591 111.647 73.2591C109.727 73.2591 108.434 74.718 108.434 76.9339C108.434 79.1313 109.727 80.5901 111.647 80.5901ZM111.647 79.6114C110.189 79.6114 109.524 78.3557 109.524 76.9339C109.524 75.512 110.189 74.2378 111.647 74.2378C113.106 74.2378 113.771 75.512 113.771 76.9339C113.771 78.3557 113.106 79.6114 111.647 79.6114ZM119.607 73.3515H118.093V71.6526H117.004V73.3515H115.933V74.2748H117.004V78.7066C117.004 79.9438 118.001 80.5347 118.924 80.5347C119.33 80.5347 119.589 80.4608 119.737 80.4055L119.515 79.4268C119.423 79.4452 119.275 79.4822 119.035 79.4822C118.555 79.4822 118.093 79.3344 118.093 78.4111V74.2748H119.607V73.3515ZM126.509 80.4424H127.58L129.131 74.9949H129.242L130.793 80.4424H131.864L134.025 73.3515H132.88L131.347 78.762H131.273L129.777 73.3515H128.614L127.1 78.7805H127.026L125.493 73.3515H124.348L126.509 80.4424ZM137.552 80.6086C138.789 80.6086 139.435 79.9438 139.657 79.4822H139.712V80.4424H140.802V75.7705C140.802 73.5177 139.084 73.2591 138.179 73.2591C137.108 73.2591 135.89 73.6285 135.336 74.9211L136.37 75.2904C136.61 74.7733 137.178 74.2194 138.216 74.2194C139.218 74.2194 139.712 74.7503 139.712 75.6597V75.6966C139.712 76.2229 139.177 76.1768 137.884 76.343C136.568 76.5138 135.133 76.8046 135.133 78.4296C135.133 79.8145 136.204 80.6086 137.552 80.6086ZM137.718 79.6299C136.85 79.6299 136.222 79.2421 136.222 78.485C136.222 77.654 136.979 77.3955 137.829 77.2847C138.29 77.2293 139.527 77.1001 139.712 76.8785V77.8756C139.712 78.762 139.01 79.6299 137.718 79.6299ZM145.874 73.3515H144.36V71.6526H143.27V73.3515H142.199V74.2748H143.27V78.7066C143.27 79.9438 144.267 80.5347 145.191 80.5347C145.597 80.5347 145.855 80.4608 146.003 80.4055L145.782 79.4268C145.689 79.4452 145.542 79.4822 145.301 79.4822C144.821 79.4822 144.36 79.3344 144.36 78.4111V74.2748H145.874V73.3515ZM150.41 80.5901C151.85 80.5901 152.903 79.8699 153.235 78.7989L152.182 78.5035C151.905 79.2421 151.264 79.6114 150.41 79.6114C149.131 79.6114 148.249 78.7851 148.198 77.2662H153.346V76.8046C153.346 74.164 151.776 73.2591 150.299 73.2591C148.378 73.2591 147.104 74.7733 147.104 76.9523C147.104 79.1313 148.36 80.5901 150.41 80.5901ZM148.198 76.3245C148.272 75.2211 149.052 74.2378 150.299 74.2378C151.481 74.2378 152.238 75.1242 152.238 76.3245H148.198ZM155.003 80.4424H156.093V75.9552C156.093 74.9949 156.85 74.2932 157.884 74.2932C158.175 74.2932 158.475 74.3486 158.548 74.3671V73.2591C158.424 73.2499 158.138 73.2407 157.976 73.2407C157.127 73.2407 156.388 73.7208 156.129 74.4225H156.056V73.3515H155.003V80.4424ZM163.496 83.1015H164.586V79.3529H164.678C164.918 79.7407 165.38 80.5901 166.746 80.5901C168.519 80.5901 169.756 79.1682 169.756 76.9154C169.756 74.681 168.519 73.2591 166.728 73.2591C165.343 73.2591 164.918 74.1086 164.678 74.4779H164.549V73.3515H163.496V83.1015ZM164.567 76.8969C164.567 75.3089 165.269 74.2378 166.598 74.2378C167.983 74.2378 168.667 75.4012 168.667 76.8969C168.667 78.4111 167.965 79.6114 166.598 79.6114C165.287 79.6114 164.567 78.5035 164.567 76.8969ZM171.418 80.4424H172.508V75.9552C172.508 74.9949 173.265 74.2932 174.299 74.2932C174.59 74.2932 174.89 74.3486 174.964 74.3671V73.2591C174.839 73.2499 174.553 73.2407 174.391 73.2407C173.542 73.2407 172.803 73.7208 172.544 74.4225H172.471V73.3515H171.418V80.4424ZM178.92 80.5901C180.84 80.5901 182.133 79.1313 182.133 76.9339C182.133 74.718 180.84 73.2591 178.92 73.2591C176.999 73.2591 175.707 74.718 175.707 76.9339C175.707 79.1313 176.999 80.5901 178.92 80.5901ZM178.92 79.6114C177.461 79.6114 176.796 78.3557 176.796 76.9339C176.796 75.512 177.461 74.2378 178.92 74.2378C180.379 74.2378 181.043 75.512 181.043 76.9339C181.043 78.3557 180.379 79.6114 178.92 79.6114ZM183.944 80.4424H184.996V79.3529H185.126C185.366 79.7407 185.827 80.5901 187.194 80.5901C188.966 80.5901 190.204 79.1682 190.204 76.9154C190.204 74.681 188.966 73.2591 187.175 73.2591C185.79 73.2591 185.366 74.1086 185.126 74.4779H185.033V70.9878H183.944V80.4424ZM185.015 76.8969C185.015 75.3089 185.716 74.2378 187.046 74.2378C188.431 74.2378 189.114 75.4012 189.114 76.8969C189.114 78.4111 188.412 79.6114 187.046 79.6114C185.735 79.6114 185.015 78.5035 185.015 76.8969ZM192.96 70.9878H191.87V80.4424H192.96V70.9878ZM197.928 80.5901C199.369 80.5901 200.421 79.8699 200.753 78.7989L199.701 78.5035C199.424 79.2421 198.782 79.6114 197.928 79.6114C196.649 79.6114 195.768 78.7851 195.717 77.2662H200.864V76.8046C200.864 74.164 199.295 73.2591 197.817 73.2591C195.897 73.2591 194.623 74.7733 194.623 76.9523C194.623 79.1313 195.878 80.5901 197.928 80.5901ZM195.717 76.3245C195.791 75.2211 196.571 74.2378 197.817 74.2378C198.999 74.2378 199.756 75.1242 199.756 76.3245H195.717ZM202.522 80.4424H203.611V76.0106C203.611 74.9719 204.368 74.2378 205.218 74.2378C206.044 74.2378 206.621 74.778 206.621 75.5858V80.4424H207.729V75.8259C207.729 74.9118 208.301 74.2378 209.299 74.2378C210.074 74.2378 210.739 74.6487 210.739 75.6966V80.4424H211.828V75.6966C211.828 74.0301 210.933 73.2591 209.668 73.2591C208.652 73.2591 207.909 73.7254 207.544 74.4594H207.47C207.12 73.7023 206.501 73.2591 205.568 73.2591C204.645 73.2591 203.962 73.7023 203.666 74.4594H203.574V73.3515H202.522V80.4424ZM215.242 77.7833H216.35V77.7279C216.369 76.583 216.664 76.0844 217.477 75.5766C218.289 75.0827 218.769 74.3717 218.769 73.3515C218.769 71.9111 217.717 70.8586 216.092 70.8586C214.596 70.8586 213.41 71.7819 213.34 73.3515H214.504C214.573 72.262 215.335 71.8188 216.092 71.8188C216.96 71.8188 217.661 72.3912 217.661 73.2961C217.661 74.0301 217.241 74.5564 216.701 74.8841C215.796 75.4335 215.256 75.969 215.242 77.7279V77.7833ZM215.833 80.5162C216.29 80.5162 216.664 80.1423 216.664 79.6853C216.664 79.2282 216.29 78.8543 215.833 78.8543C215.376 78.8543 215.002 79.2282 215.002 79.6853C215.002 80.1423 215.376 80.5162 215.833 80.5162Z" fill="#262B35"/>
<defs>
<filter id="filter0_d" x="0" y="0.442383" width="296" height="171" filterUnits="userSpaceOnUse" color-interpolation-filters="sRGB">
<feFlood flood-opacity="0" result="BackgroundImageFix"/>
<feColorMatrix in="SourceAlpha" type="matrix" values="0 0 0 0 0 0 0 0 0 0 0 0 0 0 0 0 0 0 127 0" result="hardAlpha"/>
<feOffset dy="12"/>
<feGaussianBlur stdDeviation="24"/>
<feColorMatrix type="matrix" values="0 0 0 0 0.171701 0 0 0 0 0.177292 0 0 0 0 0.191667 0 0 0 0.16 0"/>
<feBlend mode="normal" in2="BackgroundImageFix" result="effect1_dropShadow"/>
<feBlend mode="normal" in="SourceGraphic" in2="effect1_dropShadow" result="shape"/>
</filter>
</defs>
</svg>
