<svg width="296" height="172" viewBox="0 0 296 172" fill="none" xmlns="http://www.w3.org/2000/svg">
<g filter="url(#filter0_d)">
<path d="M48 41.4424C48 38.681 50.2386 36.4424 53 36.4424H243C245.761 36.4424 248 38.681 248 41.4424V92.4424C248 95.2038 245.761 97.4424 243 97.4424H222.701L223.384 111.442L204.067 97.4424H53C50.2386 97.4424 48 95.2038 48 92.4424V41.4424Z" fill="white"/>
</g>
<path d="M64.0625 60.4424C66.9432 60.4424 68.5682 58.6512 68.5682 55.6966C68.5682 52.7606 66.9432 50.9878 64.1918 50.9878H61.1449V60.4424H64.0625ZM62.2898 59.4268V52.0035H64.1179C66.3338 52.0035 67.4602 53.4069 67.4602 55.6966C67.4602 58.0049 66.3338 59.4268 63.9886 59.4268H62.2898ZM73.2216 60.5901C75.142 60.5901 76.4347 59.1313 76.4347 56.9339C76.4347 54.718 75.142 53.2591 73.2216 53.2591C71.3011 53.2591 70.0085 54.718 70.0085 56.9339C70.0085 59.1313 71.3011 60.5901 73.2216 60.5901ZM73.2216 59.6114C71.7628 59.6114 71.098 58.3557 71.098 56.9339C71.098 55.512 71.7628 54.2378 73.2216 54.2378C74.6804 54.2378 75.3452 55.512 75.3452 56.9339C75.3452 58.3557 74.6804 59.6114 73.2216 59.6114ZM81.0708 60.5901C82.5111 60.5901 83.5637 59.8699 83.896 58.7989L82.8435 58.5035C82.5665 59.2421 81.9248 59.6114 81.0708 59.6114C79.792 59.6114 78.9102 58.7851 78.8595 57.2662H84.0068V56.8046C84.0068 54.164 82.4372 53.2591 80.96 53.2591C79.0395 53.2591 77.7654 54.7733 77.7654 56.9523C77.7654 59.1313 79.021 60.5901 81.0708 60.5901ZM78.8595 56.3245C78.9333 55.2211 79.7135 54.2378 80.96 54.2378C82.1418 54.2378 82.8989 55.1242 82.8989 56.3245H78.8595ZM90.6869 54.9395C90.3453 53.9331 89.5789 53.2591 88.1755 53.2591C86.6798 53.2591 85.5718 54.1086 85.5718 55.3089C85.5718 56.2876 86.1535 56.9431 87.4553 57.2478L88.6372 57.5248C89.3527 57.691 89.6897 58.0326 89.6897 58.5219C89.6897 59.1313 89.0434 59.6299 88.0278 59.6299C87.1368 59.6299 86.5782 59.2467 86.3843 58.485L85.3502 58.7435C85.6041 59.9484 86.5967 60.5901 88.0463 60.5901C89.6943 60.5901 90.8161 59.6899 90.8161 58.4665C90.8161 57.4786 90.1975 56.8554 88.9326 56.5461L87.8801 56.2876C87.0399 56.0798 86.6613 55.7982 86.6613 55.2535C86.6613 54.6441 87.3076 54.2009 88.1755 54.2009C89.1265 54.2009 89.5189 54.7272 89.7082 55.2165L90.6869 54.9395ZM96.8141 63.083C97.7974 63.083 98.4945 62.5613 98.9007 61.4765L101.92 53.3699L100.729 53.3515L98.7715 59.002H98.6976L96.7402 53.3515H95.5584L98.1806 60.4793L97.9775 61.0333C97.5897 62.0951 97.0911 62.1966 96.2971 61.9935L96.0201 62.9537C96.1309 63.0091 96.4448 63.083 96.8141 63.083ZM105.988 60.5901C107.909 60.5901 109.201 59.1313 109.201 56.9339C109.201 54.718 107.909 53.2591 105.988 53.2591C104.068 53.2591 102.775 54.718 102.775 56.9339C102.775 59.1313 104.068 60.5901 105.988 60.5901ZM105.988 59.6114C104.529 59.6114 103.865 58.3557 103.865 56.9339C103.865 55.512 104.529 54.2378 105.988 54.2378C107.447 54.2378 108.112 55.512 108.112 56.9339C108.112 58.3557 107.447 59.6114 105.988 59.6114ZM115.333 57.5432C115.333 58.8728 114.317 59.4822 113.505 59.4822C112.6 59.4822 111.954 58.8174 111.954 57.7833V53.3515H110.864V57.8572C110.864 59.6668 111.825 60.5347 113.154 60.5347C114.225 60.5347 114.927 59.9623 115.259 59.2421H115.333V60.4424H116.423V53.3515H115.333V57.5432ZM118.418 60.4424H119.508V55.9552C119.508 54.9949 120.265 54.2932 121.299 54.2932C121.59 54.2932 121.89 54.3486 121.964 54.3671V53.2591C121.839 53.2499 121.553 53.2407 121.391 53.2407C120.542 53.2407 119.803 53.7208 119.544 54.4225H119.471V53.3515H118.418V60.4424ZM128.001 56.1768C128.001 54.9395 128.79 54.2378 129.866 54.2378C130.891 54.2378 131.509 54.8841 131.509 56.0106V60.4424H132.599V55.9367C132.599 54.1132 131.629 53.2591 130.18 53.2591C129.062 53.2591 128.425 53.7254 128.093 54.4594H128.001V50.9878H126.911V60.4424H128.001V56.1768ZM137.473 60.5901C139.393 60.5901 140.686 59.1313 140.686 56.9339C140.686 54.718 139.393 53.2591 137.473 53.2591C135.552 53.2591 134.259 54.718 134.259 56.9339C134.259 59.1313 135.552 60.5901 137.473 60.5901ZM137.473 59.6114C136.014 59.6114 135.349 58.3557 135.349 56.9339C135.349 55.512 136.014 54.2378 137.473 54.2378C138.931 54.2378 139.596 55.512 139.596 56.9339C139.596 58.3557 138.931 59.6114 137.473 59.6114ZM142.349 60.4424H143.438V56.0106C143.438 54.9719 144.195 54.2378 145.045 54.2378C145.871 54.2378 146.448 54.778 146.448 55.5858V60.4424H147.556V55.8259C147.556 54.9118 148.129 54.2378 149.126 54.2378C149.901 54.2378 150.566 54.6487 150.566 55.6966V60.4424H151.656V55.6966C151.656 54.0301 150.76 53.2591 149.495 53.2591C148.479 53.2591 147.736 53.7254 147.371 54.4594H147.298C146.947 53.7023 146.328 53.2591 145.396 53.2591C144.472 53.2591 143.789 53.7023 143.494 54.4594H143.401V53.3515H142.349V60.4424ZM156.621 60.5901C158.061 60.5901 159.113 59.8699 159.446 58.7989L158.393 58.5035C158.116 59.2421 157.475 59.6114 156.621 59.6114C155.342 59.6114 154.46 58.7851 154.409 57.2662H159.557V56.8046C159.557 54.164 157.987 53.2591 156.51 53.2591C154.589 53.2591 153.315 54.7733 153.315 56.9523C153.315 59.1313 154.571 60.5901 156.621 60.5901ZM154.409 56.3245C154.483 55.2211 155.263 54.2378 156.51 54.2378C157.692 54.2378 158.449 55.1242 158.449 56.3245H154.409ZM164.87 60.4424H165.96V57.7879L166.721 57.0816L169.376 60.4424H170.761L167.543 56.3799L170.539 53.3515H169.191L166.089 56.5091H165.96V50.9878H164.87V60.4424ZM173.031 56.1768C173.031 54.9395 173.797 54.2378 174.841 54.2378C175.852 54.2378 176.466 54.898 176.466 56.0106V60.4424H177.555V55.9367C177.555 54.127 176.59 53.2591 175.155 53.2591C174.084 53.2591 173.419 53.7393 173.086 54.4594H172.994V53.3515H171.941V60.4424H173.031V56.1768ZM182.427 60.5901C184.347 60.5901 185.64 59.1313 185.64 56.9339C185.64 54.718 184.347 53.2591 182.427 53.2591C180.506 53.2591 179.214 54.718 179.214 56.9339C179.214 59.1313 180.506 60.5901 182.427 60.5901ZM182.427 59.6114C180.968 59.6114 180.303 58.3557 180.303 56.9339C180.303 55.512 180.968 54.2378 182.427 54.2378C183.885 54.2378 184.55 55.512 184.55 56.9339C184.55 58.3557 183.885 59.6114 182.427 59.6114ZM188.668 60.4424H189.739L191.29 54.9949H191.401L192.952 60.4424H194.023L196.184 53.3515H195.039L193.506 58.762H193.432L191.937 53.3515H190.773L189.259 58.7805H189.185L187.653 53.3515H186.508L188.668 60.4424ZM202.887 60.4424H203.958L205.509 54.9949H205.62L207.171 60.4424H208.242L210.403 53.3515H209.258L207.725 58.762H207.651L206.155 53.3515H204.992L203.478 58.7805H203.404L201.871 53.3515H200.726L202.887 60.4424ZM212.932 56.1768C212.932 54.9395 213.722 54.2378 214.797 54.2378C215.822 54.2378 216.441 54.8841 216.441 56.0106V60.4424H217.53V55.9367C217.53 54.1132 216.561 53.2591 215.111 53.2591C213.994 53.2591 213.357 53.7254 213.025 54.4594H212.932V50.9878H211.843V60.4424H212.932V56.1768ZM222.497 60.5901C223.937 60.5901 224.989 59.8699 225.322 58.7989L224.269 58.5035C223.992 59.2421 223.351 59.6114 222.497 59.6114C221.218 59.6114 220.336 58.7851 220.285 57.2662H225.433V56.8046C225.433 54.164 223.863 53.2591 222.386 53.2591C220.465 53.2591 219.191 54.7733 219.191 56.9523C219.191 59.1313 220.447 60.5901 222.497 60.5901ZM220.285 56.3245C220.359 55.2211 221.139 54.2378 222.386 54.2378C223.568 54.2378 224.325 55.1242 224.325 56.3245H220.285ZM228.179 56.1768C228.179 54.9395 228.946 54.2378 229.989 54.2378C231 54.2378 231.614 54.898 231.614 56.0106V60.4424H232.704V55.9367C232.704 54.127 231.739 53.2591 230.303 53.2591C229.232 53.2591 228.567 53.7393 228.235 54.4594H228.142V53.3515H227.09V60.4424H228.179V56.1768ZM63.0838 80.6086C64.321 80.6086 64.9673 79.9438 65.1889 79.4822H65.2443V80.4424H66.3338V75.7705C66.3338 73.5177 64.6165 73.2591 63.7116 73.2591C62.6406 73.2591 61.4219 73.6285 60.8679 74.9211L61.902 75.2904C62.142 74.7733 62.7099 74.2194 63.7486 74.2194C64.7504 74.2194 65.2443 74.7503 65.2443 75.6597V75.6966C65.2443 76.2229 64.7088 76.1768 63.4162 76.343C62.1005 76.5138 60.6648 76.8046 60.6648 78.4296C60.6648 79.8145 61.7358 80.6086 63.0838 80.6086ZM63.25 79.6299C62.3821 79.6299 61.7543 79.2421 61.7543 78.485C61.7543 77.654 62.5114 77.3955 63.3608 77.2847C63.8224 77.2293 65.0597 77.1001 65.2443 76.8785V77.8756C65.2443 78.762 64.5426 79.6299 63.25 79.6299ZM71.9786 83.1015H73.0681V79.3529H73.1604C73.4005 79.7407 73.8621 80.5901 75.2286 80.5901C77.0013 80.5901 78.2385 79.1682 78.2385 76.9154C78.2385 74.681 77.0013 73.2591 75.2101 73.2591C73.8252 73.2591 73.4005 74.1086 73.1604 74.4779H73.0312V73.3515H71.9786V83.1015ZM73.0496 76.8969C73.0496 75.3089 73.7513 74.2378 75.0809 74.2378C76.4658 74.2378 77.1491 75.4012 77.1491 76.8969C77.1491 78.4111 76.4474 79.6114 75.0809 79.6114C73.7698 79.6114 73.0496 78.5035 73.0496 76.8969ZM79.9005 80.4424H80.99V73.3515H79.9005V80.4424ZM80.4545 72.1697C80.8792 72.1697 81.23 71.8373 81.23 71.431C81.23 71.0248 80.8792 70.6924 80.4545 70.6924C80.0297 70.6924 79.6789 71.0248 79.6789 71.431C79.6789 71.8373 80.0297 72.1697 80.4545 72.1697ZM82.9854 83.1015H84.0749V79.3529H84.1673C84.4073 79.7407 84.869 80.5901 86.2354 80.5901C88.0082 80.5901 89.2454 79.1682 89.2454 76.9154C89.2454 74.681 88.0082 73.2591 86.217 73.2591C84.832 73.2591 84.4073 74.1086 84.1673 74.4779H84.038V73.3515H82.9854V83.1015ZM84.0565 76.8969C84.0565 75.3089 84.7582 74.2378 86.0877 74.2378C87.4727 74.2378 88.1559 75.4012 88.1559 76.8969C88.1559 78.4111 87.4542 79.6114 86.0877 79.6114C84.7766 79.6114 84.0565 78.5035 84.0565 76.8969ZM93.8803 80.5901C95.3207 80.5901 96.3732 79.8699 96.7056 78.7989L95.6531 78.5035C95.3761 79.2421 94.7344 79.6114 93.8803 79.6114C92.6016 79.6114 91.7198 78.7851 91.669 77.2662H96.8164V76.8046C96.8164 74.164 95.2468 73.2591 93.7695 73.2591C91.8491 73.2591 90.5749 74.7733 90.5749 76.9523C90.5749 79.1313 91.8306 80.5901 93.8803 80.5901ZM91.669 76.3245C91.7429 75.2211 92.5231 74.2378 93.7695 74.2378C94.9513 74.2378 95.7085 75.1242 95.7085 76.3245H91.669ZM102.13 80.4424H103.219V73.3515H102.13V80.4424ZM102.684 72.1697C103.109 72.1697 103.46 71.8373 103.46 71.431C103.46 71.0248 103.109 70.6924 102.684 70.6924C102.259 70.6924 101.908 71.0248 101.908 71.431C101.908 71.8373 102.259 72.1697 102.684 72.1697ZM110.238 74.9395C109.896 73.9331 109.13 73.2591 107.726 73.2591C106.231 73.2591 105.123 74.1086 105.123 75.3089C105.123 76.2876 105.704 76.9431 107.006 77.2478L108.188 77.5248C108.903 77.691 109.241 78.0326 109.241 78.5219C109.241 79.1313 108.594 79.6299 107.579 79.6299C106.688 79.6299 106.129 79.2467 105.935 78.485L104.901 78.7435C105.155 79.9484 106.147 80.5901 107.597 80.5901C109.245 80.5901 110.367 79.6899 110.367 78.4665C110.367 77.4786 109.748 76.8554 108.483 76.5461L107.431 76.2876C106.591 76.0798 106.212 75.7982 106.212 75.2535C106.212 74.6441 106.858 74.2009 107.726 74.2009C108.677 74.2009 109.07 74.7272 109.259 75.2165L110.238 74.9395ZM116.753 70.9878H115.663V80.4424H116.753V70.9878ZM121.721 80.5901C123.161 80.5901 124.214 79.8699 124.546 78.7989L123.494 78.5035C123.217 79.2421 122.575 79.6114 121.721 79.6114C120.442 79.6114 119.561 78.7851 119.51 77.2662H124.657V76.8046C124.657 74.164 123.088 73.2591 121.61 73.2591C119.69 73.2591 118.416 74.7733 118.416 76.9523C118.416 79.1313 119.671 80.5901 121.721 80.5901ZM119.51 76.3245C119.584 75.2211 120.364 74.2378 121.61 74.2378C122.792 74.2378 123.549 75.1242 123.549 76.3245H119.51ZM128.401 80.6086C129.638 80.6086 130.285 79.9438 130.506 79.4822H130.562V80.4424H131.651V75.7705C131.651 73.5177 129.934 73.2591 129.029 73.2591C127.958 73.2591 126.739 73.6285 126.185 74.9211L127.219 75.2904C127.459 74.7733 128.027 74.2194 129.066 74.2194C130.068 74.2194 130.562 74.7503 130.562 75.6597V75.6966C130.562 76.2229 130.026 76.1768 128.734 76.343C127.418 76.5138 125.982 76.8046 125.982 78.4296C125.982 79.8145 127.053 80.6086 128.401 80.6086ZM128.567 79.6299C127.699 79.6299 127.072 79.2421 127.072 78.485C127.072 77.654 127.829 77.3955 128.678 77.2847C129.14 77.2293 130.377 77.1001 130.562 76.8785V77.8756C130.562 78.762 129.86 79.6299 128.567 79.6299ZM133.64 80.4424H134.729V77.7879L135.491 77.0816L138.145 80.4424H139.53L136.313 76.3799L139.309 73.3515H137.961L134.858 76.5091H134.729V70.9878H133.64V80.4424ZM140.711 80.4424H141.801V73.3515H140.711V80.4424ZM141.265 72.1697C141.69 72.1697 142.041 71.8373 142.041 71.431C142.041 71.0248 141.69 70.6924 141.265 70.6924C140.84 70.6924 140.489 71.0248 140.489 71.431C140.489 71.8373 140.84 72.1697 141.265 72.1697ZM144.885 76.1768C144.885 74.9395 145.652 74.2378 146.695 74.2378C147.706 74.2378 148.32 74.898 148.32 76.0106V80.4424H149.41V75.9367C149.41 74.127 148.445 73.2591 147.009 73.2591C145.938 73.2591 145.273 73.7393 144.941 74.4594H144.849V73.3515H143.796V80.4424H144.885V76.1768ZM154.263 83.2492C155.962 83.2492 157.328 82.4736 157.328 80.6455V73.3515H156.275V74.4779H156.165C155.925 74.1086 155.481 73.2591 154.097 73.2591C152.305 73.2591 151.068 74.681 151.068 76.86C151.068 79.0759 152.361 80.3316 154.078 80.3316C155.463 80.3316 155.906 79.5191 156.146 79.1313H156.239V80.5716C156.239 81.7535 155.408 82.289 154.263 82.289C152.975 82.289 152.522 81.6104 152.231 81.218L151.364 81.8273C151.807 82.5706 152.679 83.2492 154.263 83.2492ZM154.226 79.3529C152.859 79.3529 152.158 78.3188 152.158 76.8415C152.158 75.4012 152.841 74.2378 154.226 74.2378C155.555 74.2378 156.257 75.3089 156.257 76.8415C156.257 78.4111 155.537 79.3529 154.226 79.3529ZM160.744 77.7833H161.852V77.7279C161.871 76.583 162.166 76.0844 162.979 75.5766C163.791 75.0827 164.271 74.3717 164.271 73.3515C164.271 71.9111 163.219 70.8586 161.594 70.8586C160.098 70.8586 158.911 71.7819 158.842 73.3515H160.006C160.075 72.262 160.837 71.8188 161.594 71.8188C162.462 71.8188 163.163 72.3912 163.163 73.2961C163.163 74.0301 162.743 74.5564 162.203 74.8841C161.298 75.4335 160.758 75.969 160.744 77.7279V77.7833ZM161.335 80.5162C161.792 80.5162 162.166 80.1423 162.166 79.6853C162.166 79.2282 161.792 78.8543 161.335 78.8543C160.878 78.8543 160.504 79.2282 160.504 79.6853C160.504 80.1423 160.878 80.5162 161.335 80.5162Z" fill="#262B35"/>
<defs>
<filter id="filter0_d" x="0" y="0.442383" width="296" height="171" filterUnits="userSpaceOnUse" color-interpolation-filters="sRGB">
<feFlood flood-opacity="0" result="BackgroundImageFix"/>
<feColorMatrix in="SourceAlpha" type="matrix" values="0 0 0 0 0 0 0 0 0 0 0 0 0 0 0 0 0 0 127 0" result="hardAlpha"/>
<feOffset dy="12"/>
<feGaussianBlur stdDeviation="24"/>
<feColorMatrix type="matrix" values="0 0 0 0 0.171701 0 0 0 0 0.177292 0 0 0 0 0.191667 0 0 0 0.16 0"/>
<feBlend mode="normal" in2="BackgroundImageFix" result="effect1_dropShadow"/>
<feBlend mode="normal" in="SourceGraphic" in2="effect1_dropShadow" result="shape"/>
</filter>
</defs>
</svg>
