<svg width="306" height="175" viewBox="0 0 306 175" fill="none" xmlns="http://www.w3.org/2000/svg">
<g filter="url(#filter0_d)">
<path d="M48 58.4421C48 55.6807 50.2386 53.4421 53 53.4421H214.381L232.449 36.4421L233.085 53.4421H253C255.761 53.4421 258 55.6807 258 58.4421V109.442C258 112.204 255.761 114.442 253 114.442H53C50.2386 114.442 48 112.204 48 109.442V58.4421Z" fill="white"/>
</g>
<path d="M64.0625 78.4421C66.9432 78.4421 68.5682 76.6509 68.5682 73.6964C68.5682 70.7603 66.9432 68.9876 64.1918 68.9876H61.1449V78.4421H64.0625ZM62.2898 77.4265V70.0032H64.1179C66.3338 70.0032 67.4602 71.4066 67.4602 73.6964C67.4602 76.0046 66.3338 77.4265 63.9886 77.4265H62.2898ZM73.2216 78.5899C75.142 78.5899 76.4347 77.1311 76.4347 74.9336C76.4347 72.7177 75.142 71.2589 73.2216 71.2589C71.3011 71.2589 70.0085 72.7177 70.0085 74.9336C70.0085 77.1311 71.3011 78.5899 73.2216 78.5899ZM73.2216 77.6112C71.7628 77.6112 71.098 76.3555 71.098 74.9336C71.098 73.5117 71.7628 72.2376 73.2216 72.2376C74.6804 72.2376 75.3452 73.5117 75.3452 74.9336C75.3452 76.3555 74.6804 77.6112 73.2216 77.6112ZM81.0708 78.5899C82.5111 78.5899 83.5637 77.8697 83.896 76.7987L82.8435 76.5032C82.5665 77.2419 81.9248 77.6112 81.0708 77.6112C79.792 77.6112 78.9102 76.7848 78.8595 75.266H84.0068V74.8044C84.0068 72.1637 82.4372 71.2589 80.96 71.2589C79.0395 71.2589 77.7654 72.7731 77.7654 74.9521C77.7654 77.1311 79.021 78.5899 81.0708 78.5899ZM78.8595 74.3242C78.9333 73.2209 79.7135 72.2376 80.96 72.2376C82.1418 72.2376 82.8989 73.124 82.8989 74.3242H78.8595ZM90.6869 72.9393C90.3453 71.9329 89.5789 71.2589 88.1755 71.2589C86.6798 71.2589 85.5718 72.1083 85.5718 73.3086C85.5718 74.2873 86.1535 74.9428 87.4553 75.2475L88.6372 75.5245C89.3527 75.6907 89.6897 76.0323 89.6897 76.5217C89.6897 77.1311 89.0434 77.6296 88.0278 77.6296C87.1368 77.6296 86.5782 77.2465 86.3843 76.4848L85.3502 76.7433C85.6041 77.9482 86.5967 78.5899 88.0463 78.5899C89.6943 78.5899 90.8161 77.6897 90.8161 76.4663C90.8161 75.4784 90.1975 74.8551 88.9326 74.5458L87.8801 74.2873C87.0399 74.0796 86.6613 73.798 86.6613 73.2532C86.6613 72.6438 87.3076 72.2007 88.1755 72.2007C89.1265 72.2007 89.5189 72.7269 89.7082 73.2163L90.6869 72.9393ZM96.1124 78.4421H97.2019V71.3512H96.1124V78.4421ZM96.6664 70.1694C97.0911 70.1694 97.4419 69.837 97.4419 69.4308C97.4419 69.0245 97.0911 68.6921 96.6664 68.6921C96.2417 68.6921 95.8908 69.0245 95.8908 69.4308C95.8908 69.837 96.2417 70.1694 96.6664 70.1694ZM102.281 71.3512H100.767V69.6524H99.6775V71.3512H98.6064V72.2745H99.6775V76.7063C99.6775 77.9436 100.675 78.5345 101.598 78.5345C102.004 78.5345 102.263 78.4606 102.41 78.4052L102.189 77.4265C102.097 77.445 101.949 77.4819 101.709 77.4819C101.229 77.4819 100.767 77.3342 100.767 76.4109V72.2745H102.281V71.3512ZM109.663 78.6083C110.9 78.6083 111.546 77.9436 111.768 77.4819H111.823V78.4421H112.913V73.7703C112.913 71.5174 111.196 71.2589 110.291 71.2589C109.22 71.2589 108.001 71.6282 107.447 72.9208L108.481 73.2901C108.721 72.7731 109.289 72.2191 110.328 72.2191C111.329 72.2191 111.823 72.75 111.823 73.6595V73.6964C111.823 74.2227 111.288 74.1765 109.995 74.3427C108.68 74.5135 107.244 74.8044 107.244 76.4294C107.244 77.8143 108.315 78.6083 109.663 78.6083ZM109.829 77.6296C108.961 77.6296 108.333 77.2419 108.333 76.4848C108.333 75.6538 109.09 75.3953 109.94 75.2845C110.402 75.2291 111.639 75.0998 111.823 74.8782V75.8754C111.823 76.7617 111.122 77.6296 109.829 77.6296ZM115.991 74.1765C115.991 72.9393 116.757 72.2376 117.801 72.2376C118.812 72.2376 119.426 72.8977 119.426 74.0103V78.4421H120.515V73.9365C120.515 72.1268 119.55 71.2589 118.115 71.2589C117.044 71.2589 116.379 71.739 116.046 72.4592H115.954V71.3512H114.901V78.4421H115.991V74.1765ZM125.59 71.3512H124.076V69.6524H122.986V71.3512H121.915V72.2745H122.986V76.7063C122.986 77.9436 123.983 78.5345 124.907 78.5345C125.313 78.5345 125.571 78.4606 125.719 78.4052L125.497 77.4265C125.405 77.445 125.257 77.4819 125.017 77.4819C124.537 77.4819 124.076 77.3342 124.076 76.4109V72.2745H125.59V71.3512ZM127.229 78.4421H128.318V71.3512H127.229V78.4421ZM127.783 70.1694C128.207 70.1694 128.558 69.837 128.558 69.4308C128.558 69.0245 128.207 68.6921 127.783 68.6921C127.358 68.6921 127.007 69.0245 127.007 69.4308C127.007 69.837 127.358 70.1694 127.783 70.1694ZM133.194 78.5899C134.764 78.5899 135.798 77.6296 135.983 76.374H134.893C134.69 77.1495 134.044 77.6112 133.194 77.6112C131.902 77.6112 131.071 76.5401 131.071 74.8967C131.071 73.2901 131.92 72.2376 133.194 72.2376C134.154 72.2376 134.727 72.8285 134.893 73.4748H135.983C135.798 72.1453 134.672 71.2589 133.176 71.2589C131.255 71.2589 129.981 72.7731 129.981 74.9336C129.981 77.0572 131.2 78.5899 133.194 78.5899ZM137.575 78.4421H138.665V71.3512H137.575V78.4421ZM138.129 70.1694C138.554 70.1694 138.905 69.837 138.905 69.4308C138.905 69.0245 138.554 68.6921 138.129 68.6921C137.705 68.6921 137.354 69.0245 137.354 69.4308C137.354 69.837 137.705 70.1694 138.129 70.1694ZM140.66 81.1012H141.75V77.3527H141.842C142.082 77.7404 142.544 78.5899 143.91 78.5899C145.683 78.5899 146.92 77.168 146.92 74.9152C146.92 72.6808 145.683 71.2589 143.892 71.2589C142.507 71.2589 142.082 72.1083 141.842 72.4776H141.713V71.3512H140.66V81.1012ZM141.731 74.8967C141.731 73.3086 142.433 72.2376 143.763 72.2376C145.147 72.2376 145.831 73.4009 145.831 74.8967C145.831 76.4109 145.129 77.6112 143.763 77.6112C142.451 77.6112 141.731 76.5032 141.731 74.8967ZM150.669 78.6083C151.906 78.6083 152.552 77.9436 152.774 77.4819H152.829V78.4421H153.919V73.7703C153.919 71.5174 152.201 71.2589 151.297 71.2589C150.226 71.2589 149.007 71.6282 148.453 72.9208L149.487 73.2901C149.727 72.7731 150.295 72.2191 151.334 72.2191C152.335 72.2191 152.829 72.75 152.829 73.6595V73.6964C152.829 74.2227 152.294 74.1765 151.001 74.3427C149.685 74.5135 148.25 74.8044 148.25 76.4294C148.25 77.8143 149.321 78.6083 150.669 78.6083ZM150.835 77.6296C149.967 77.6296 149.339 77.2419 149.339 76.4848C149.339 75.6538 150.096 75.3953 150.946 75.2845C151.407 75.2291 152.645 75.0998 152.829 74.8782V75.8754C152.829 76.7617 152.128 77.6296 150.835 77.6296ZM158.991 71.3512H157.477V69.6524H156.387V71.3512H155.316V72.2745H156.387V76.7063C156.387 77.9436 157.385 78.5345 158.308 78.5345C158.714 78.5345 158.973 78.4606 159.12 78.4052L158.899 77.4265C158.806 77.445 158.659 77.4819 158.419 77.4819C157.939 77.4819 157.477 77.3342 157.477 76.4109V72.2745H158.991V71.3512ZM163.527 78.5899C164.967 78.5899 166.02 77.8697 166.352 76.7987L165.3 76.5032C165.023 77.2419 164.381 77.6112 163.527 77.6112C162.248 77.6112 161.366 76.7848 161.316 75.266H166.463V74.8044C166.463 72.1637 164.893 71.2589 163.416 71.2589C161.496 71.2589 160.221 72.7731 160.221 74.9521C160.221 77.1311 161.477 78.5899 163.527 78.5899ZM161.316 74.3242C161.389 73.2209 162.17 72.2376 163.416 72.2376C164.598 72.2376 165.355 73.124 165.355 74.3242H161.316ZM176.799 72.9393C176.458 71.9329 175.691 71.2589 174.288 71.2589C172.792 71.2589 171.684 72.1083 171.684 73.3086C171.684 74.2873 172.266 74.9428 173.568 75.2475L174.749 75.5245C175.465 75.6907 175.802 76.0323 175.802 76.5217C175.802 77.1311 175.156 77.6296 174.14 77.6296C173.249 77.6296 172.691 77.2465 172.497 76.4848L171.463 76.7433C171.716 77.9482 172.709 78.5899 174.159 78.5899C175.807 78.5899 176.928 77.6897 176.928 76.4663C176.928 75.4784 176.31 74.8551 175.045 74.5458L173.992 74.2873C173.152 74.0796 172.774 73.798 172.774 73.2532C172.774 72.6438 173.42 72.2007 174.288 72.2007C175.239 72.2007 175.631 72.7269 175.82 73.2163L176.799 72.9393ZM179.27 81.0828C180.253 81.0828 180.951 80.5611 181.357 79.4762L184.376 71.3697L183.185 71.3512L181.228 77.0018H181.154L179.196 71.3512H178.014L180.637 78.4791L180.434 79.033C180.046 80.0948 179.547 80.1964 178.753 79.9933L178.476 80.9535C178.587 81.0089 178.901 81.0828 179.27 81.0828ZM190.84 72.9393C190.499 71.9329 189.732 71.2589 188.329 71.2589C186.833 71.2589 185.725 72.1083 185.725 73.3086C185.725 74.2873 186.307 74.9428 187.609 75.2475L188.79 75.5245C189.506 75.6907 189.843 76.0323 189.843 76.5217C189.843 77.1311 189.197 77.6296 188.181 77.6296C187.29 77.6296 186.732 77.2465 186.538 76.4848L185.504 76.7433C185.757 77.9482 186.75 78.5899 188.2 78.5899C189.848 78.5899 190.969 77.6897 190.969 76.4663C190.969 75.4784 190.351 74.8551 189.086 74.5458L188.033 74.2873C187.193 74.0796 186.815 73.798 186.815 73.2532C186.815 72.6438 187.461 72.2007 188.329 72.2007C189.28 72.2007 189.672 72.7269 189.862 73.2163L190.84 72.9393ZM195.693 71.3512H194.179V69.6524H193.09V71.3512H192.019V72.2745H193.09V76.7063C193.09 77.9436 194.087 78.5345 195.01 78.5345C195.416 78.5345 195.675 78.4606 195.823 78.4052L195.601 77.4265C195.509 77.445 195.361 77.4819 195.121 77.4819C194.641 77.4819 194.179 77.3342 194.179 76.4109V72.2745H195.693V71.3512ZM200.229 78.5899C201.669 78.5899 202.722 77.8697 203.054 76.7987L202.002 76.5032C201.725 77.2419 201.083 77.6112 200.229 77.6112C198.95 77.6112 198.068 76.7848 198.018 75.266H203.165V74.8044C203.165 72.1637 201.595 71.2589 200.118 71.2589C198.198 71.2589 196.924 72.7731 196.924 74.9521C196.924 77.1311 198.179 78.5899 200.229 78.5899ZM198.018 74.3242C198.092 73.2209 198.872 72.2376 200.118 72.2376C201.3 72.2376 202.057 73.124 202.057 74.3242H198.018ZM204.822 78.4421H205.912V74.0103C205.912 72.9716 206.669 72.2376 207.518 72.2376C208.345 72.2376 208.922 72.7777 208.922 73.5856V78.4421H210.03V73.8257C210.03 72.9116 210.602 72.2376 211.599 72.2376C212.375 72.2376 213.04 72.6485 213.04 73.6964V78.4421H214.129V73.6964C214.129 72.0299 213.234 71.2589 211.969 71.2589C210.953 71.2589 210.21 71.7252 209.845 72.4592H209.771C209.42 71.7021 208.802 71.2589 207.869 71.2589C206.946 71.2589 206.263 71.7021 205.967 72.4592H205.875V71.3512H204.822V78.4421ZM60.9972 98.4421H62.0866V91.3512H60.9972V98.4421ZM61.5511 90.1694C61.9759 90.1694 62.3267 89.837 62.3267 89.4308C62.3267 89.0245 61.9759 88.6921 61.5511 88.6921C61.1264 88.6921 60.7756 89.0245 60.7756 89.4308C60.7756 89.837 61.1264 90.1694 61.5511 90.1694ZM69.1048 92.9393C68.7632 91.9329 67.9969 91.2589 66.5935 91.2589C65.0977 91.2589 63.9898 92.1083 63.9898 93.3086C63.9898 94.2873 64.5715 94.9428 65.8733 95.2475L67.0551 95.5245C67.7707 95.6907 68.1077 96.0323 68.1077 96.5217C68.1077 97.1311 67.4614 97.6296 66.4458 97.6296C65.5548 97.6296 64.9962 97.2465 64.8023 96.4848L63.7682 96.7433C64.0221 97.9482 65.0146 98.5899 66.4642 98.5899C68.1123 98.5899 69.2341 97.6897 69.2341 96.4663C69.2341 95.4784 68.6155 94.8551 67.3506 94.5458L66.298 94.2873C65.4578 94.0796 65.0793 93.798 65.0793 93.2532C65.0793 92.6438 65.7256 92.2007 66.5935 92.2007C67.5445 92.2007 67.9369 92.7269 68.1262 93.2163L69.1048 92.9393ZM75.8968 92.9393C75.5552 91.9329 74.7889 91.2589 73.3855 91.2589C71.8897 91.2589 70.7818 92.1083 70.7818 93.3086C70.7818 94.2873 71.3635 94.9428 72.6653 95.2475L73.8471 95.5245C74.5627 95.6907 74.8997 96.0323 74.8997 96.5217C74.8997 97.1311 74.2534 97.6296 73.2377 97.6296C72.3468 97.6296 71.7882 97.2465 71.5943 96.4848L70.5602 96.7433C70.8141 97.9482 71.8066 98.5899 73.2562 98.5899C74.9043 98.5899 76.0261 97.6897 76.0261 96.4663C76.0261 95.4784 75.4075 94.8551 74.1426 94.5458L73.09 94.2873C72.2498 94.0796 71.8713 93.798 71.8713 93.2532C71.8713 92.6438 72.5176 92.2007 73.3855 92.2007C74.3365 92.2007 74.7289 92.7269 74.9181 93.2163L75.8968 92.9393ZM82.1349 95.543C82.1349 96.8725 81.1192 97.4819 80.3067 97.4819C79.4019 97.4819 78.7556 96.8171 78.7556 95.783V91.3512H77.6661V95.8569C77.6661 97.6666 78.6263 98.5345 79.9559 98.5345C81.0269 98.5345 81.7286 97.962 82.061 97.2419H82.1349V98.4421H83.2243V91.3512H82.1349V95.543ZM88.1928 98.5899C89.6332 98.5899 90.6857 97.8697 91.0181 96.7987L89.9656 96.5032C89.6886 97.2419 89.0469 97.6112 88.1928 97.6112C86.9141 97.6112 86.0323 96.7848 85.9815 95.266H91.1289V94.8044C91.1289 92.1637 89.5593 91.2589 88.082 91.2589C86.1616 91.2589 84.8874 92.7731 84.8874 94.9521C84.8874 97.1311 86.1431 98.5899 88.1928 98.5899ZM85.9815 94.3242C86.0554 93.2209 86.8356 92.2376 88.082 92.2376C89.2638 92.2376 90.021 93.124 90.021 94.3242H85.9815ZM97.8089 92.9393C97.4673 91.9329 96.701 91.2589 95.2976 91.2589C93.8018 91.2589 92.6939 92.1083 92.6939 93.3086C92.6939 94.2873 93.2756 94.9428 94.5774 95.2475L95.7592 95.5245C96.4748 95.6907 96.8118 96.0323 96.8118 96.5217C96.8118 97.1311 96.1655 97.6296 95.1499 97.6296C94.2589 97.6296 93.7003 97.2465 93.5064 96.4848L92.4723 96.7433C92.7262 97.9482 93.7188 98.5899 95.1683 98.5899C96.8164 98.5899 97.9382 97.6897 97.9382 96.4663C97.9382 95.4784 97.3196 94.8551 96.0547 94.5458L95.0021 94.2873C94.1619 94.0796 93.7834 93.798 93.7834 93.2532C93.7834 92.6438 94.4297 92.2007 95.2976 92.2007C96.2486 92.2007 96.641 92.7269 96.8303 93.2163L97.8089 92.9393ZM106.392 91.3512H104.804V90.6311C104.804 89.9294 105.1 89.56 105.82 89.56C106.134 89.56 106.318 89.6339 106.429 89.6708L106.743 88.7291C106.577 88.6552 106.244 88.5444 105.709 88.5444C104.693 88.5444 103.715 89.1538 103.715 90.3725V91.3512H102.57V92.2745H103.715V98.4421H104.804V92.2745H106.392V91.3512ZM107.919 98.4421H109.009V93.9549C109.009 92.9947 109.766 92.293 110.8 92.293C111.091 92.293 111.391 92.3484 111.464 92.3669V91.2589C111.34 91.2497 111.054 91.2404 110.892 91.2404C110.043 91.2404 109.304 91.7205 109.045 92.4223H108.972V91.3512H107.919V98.4421ZM115.421 98.5899C117.341 98.5899 118.634 97.1311 118.634 94.9336C118.634 92.7177 117.341 91.2589 115.421 91.2589C113.5 91.2589 112.208 92.7177 112.208 94.9336C112.208 97.1311 113.5 98.5899 115.421 98.5899ZM115.421 97.6112C113.962 97.6112 113.297 96.3555 113.297 94.9336C113.297 93.5117 113.962 92.2376 115.421 92.2376C116.88 92.2376 117.544 93.5117 117.544 94.9336C117.544 96.3555 116.88 97.6112 115.421 97.6112ZM120.297 98.4421H121.386V94.0103C121.386 92.9716 122.144 92.2376 122.993 92.2376C123.819 92.2376 124.396 92.7777 124.396 93.5856V98.4421H125.504V93.8257C125.504 92.9116 126.077 92.2376 127.074 92.2376C127.85 92.2376 128.514 92.6485 128.514 93.6964V98.4421H129.604V93.6964C129.604 92.0299 128.708 91.2589 127.443 91.2589C126.428 91.2589 125.684 91.7252 125.32 92.4592H125.246C124.895 91.7021 124.276 91.2589 123.344 91.2589C122.421 91.2589 121.737 91.7021 121.442 92.4592H121.35V91.3512H120.297V98.4421ZM136.859 98.4421H137.93L139.481 92.9947H139.592L141.143 98.4421H142.214L144.374 91.3512H143.229L141.697 96.7617H141.623L140.127 91.3512H138.964L137.449 96.7802H137.376L135.843 91.3512H134.698L136.859 98.4421ZM148.546 98.5899C149.987 98.5899 151.039 97.8697 151.372 96.7987L150.319 96.5032C150.042 97.2419 149.4 97.6112 148.546 97.6112C147.268 97.6112 146.386 96.7848 146.335 95.266H151.482V94.8044C151.482 92.1637 149.913 91.2589 148.436 91.2589C146.515 91.2589 145.241 92.7731 145.241 94.9521C145.241 97.1311 146.497 98.5899 148.546 98.5899ZM146.335 94.3242C146.409 93.2209 147.189 92.2376 148.436 92.2376C149.617 92.2376 150.374 93.124 150.374 94.3242H146.335ZM155.226 98.6083C156.464 98.6083 157.11 97.9436 157.331 97.4819H157.387V98.4421H158.476V93.7703C158.476 91.5174 156.759 91.2589 155.854 91.2589C154.783 91.2589 153.564 91.6282 153.01 92.9208L154.045 93.2901C154.285 92.7731 154.852 92.2191 155.891 92.2191C156.893 92.2191 157.387 92.75 157.387 93.6595V93.6964C157.387 94.2227 156.851 94.1765 155.559 94.3427C154.243 94.5135 152.807 94.8044 152.807 96.4294C152.807 97.8143 153.878 98.6083 155.226 98.6083ZM155.393 97.6296C154.525 97.6296 153.897 97.2419 153.897 96.4848C153.897 95.6538 154.654 95.3953 155.503 95.2845C155.965 95.2291 157.202 95.0998 157.387 94.8782V95.8754C157.387 96.7617 156.685 97.6296 155.393 97.6296ZM160.465 98.4421H161.554V93.9549C161.554 92.9947 162.312 92.293 163.346 92.293C163.636 92.293 163.937 92.3484 164.01 92.3669V91.2589C163.886 91.2497 163.6 91.2404 163.438 91.2404C162.589 91.2404 161.85 91.7205 161.591 92.4223H161.517V91.3512H160.465V98.4421ZM171.045 98.6083C172.282 98.6083 172.928 97.9436 173.15 97.4819H173.205V98.4421H174.295V93.7703C174.295 91.5174 172.577 91.2589 171.673 91.2589C170.602 91.2589 169.383 91.6282 168.829 92.9208L169.863 93.2901C170.103 92.7731 170.671 92.2191 171.71 92.2191C172.711 92.2191 173.205 92.75 173.205 93.6595V93.6964C173.205 94.2227 172.67 94.1765 171.377 94.3427C170.061 94.5135 168.626 94.8044 168.626 96.4294C168.626 97.8143 169.697 98.6083 171.045 98.6083ZM171.211 97.6296C170.343 97.6296 169.715 97.2419 169.715 96.4848C169.715 95.6538 170.472 95.3953 171.322 95.2845C171.783 95.2291 173.021 95.0998 173.205 94.8782V95.8754C173.205 96.7617 172.504 97.6296 171.211 97.6296ZM177.373 94.1765C177.373 92.9393 178.139 92.2376 179.182 92.2376C180.193 92.2376 180.807 92.8977 180.807 94.0103V98.4421H181.897V93.9365C181.897 92.1268 180.932 91.2589 179.496 91.2589C178.425 91.2589 177.761 91.739 177.428 92.4592H177.336V91.3512H176.283V98.4421H177.373V94.1765ZM186.565 98.5899C187.932 98.5899 188.393 97.7404 188.634 97.3527H188.763V98.4421H189.815V88.9876H188.726V92.4776H188.634C188.393 92.1083 187.969 91.2589 186.584 91.2589C184.793 91.2589 183.555 92.6808 183.555 94.9152C183.555 97.168 184.793 98.5899 186.565 98.5899ZM186.713 97.6112C185.347 97.6112 184.645 96.4109 184.645 94.8967C184.645 93.4009 185.328 92.2376 186.713 92.2376C188.043 92.2376 188.744 93.3086 188.744 94.8967C188.744 96.5032 188.024 97.6112 186.713 97.6112ZM198.702 91.3512H197.188V89.6524H196.098V91.3512H195.027V92.2745H196.098V96.7063C196.098 97.9436 197.096 98.5345 198.019 98.5345C198.425 98.5345 198.684 98.4606 198.831 98.4052L198.61 97.4265C198.517 97.445 198.37 97.4819 198.13 97.4819C197.65 97.4819 197.188 97.3342 197.188 96.4109V92.2745H198.702V91.3512ZM203.238 98.5899C204.678 98.5899 205.731 97.8697 206.063 96.7987L205.01 96.5032C204.733 97.2419 204.092 97.6112 203.238 97.6112C201.959 97.6112 201.077 96.7848 201.026 95.266H206.174V94.8044C206.174 92.1637 204.604 91.2589 203.127 91.2589C201.206 91.2589 199.932 92.7731 199.932 94.9521C199.932 97.1311 201.188 98.5899 203.238 98.5899ZM201.026 94.3242C201.1 93.2209 201.881 92.2376 203.127 92.2376C204.309 92.2376 205.066 93.124 205.066 94.3242H201.026ZM209.918 98.6083C211.155 98.6083 211.801 97.9436 212.023 97.4819H212.078V98.4421H213.168V93.7703C213.168 91.5174 211.45 91.2589 210.546 91.2589C209.475 91.2589 208.256 91.6282 207.702 92.9208L208.736 93.2901C208.976 92.7731 209.544 92.2191 210.583 92.2191C211.584 92.2191 212.078 92.75 212.078 93.6595V93.6964C212.078 94.2227 211.543 94.1765 210.25 94.3427C208.934 94.5135 207.499 94.8044 207.499 96.4294C207.499 97.8143 208.57 98.6083 209.918 98.6083ZM210.084 97.6296C209.216 97.6296 208.588 97.2419 208.588 96.4848C208.588 95.6538 209.345 95.3953 210.195 95.2845C210.656 95.2291 211.894 95.0998 212.078 94.8782V95.8754C212.078 96.7617 211.377 97.6296 210.084 97.6296ZM215.156 98.4421H216.246V93.9549C216.246 92.9947 217.003 92.293 218.037 92.293C218.328 92.293 218.628 92.3484 218.702 92.3669V91.2589C218.577 91.2497 218.291 91.2404 218.129 91.2404C217.28 91.2404 216.541 91.7205 216.283 92.4223H216.209V91.3512H215.156V98.4421ZM221.415 95.783H222.523V95.7276C222.542 94.5828 222.837 94.0842 223.65 93.5764C224.462 93.0824 224.942 92.3715 224.942 91.3512C224.942 89.9109 223.89 88.8583 222.265 88.8583C220.769 88.8583 219.582 89.7816 219.513 91.3512H220.676C220.746 90.2617 221.507 89.8186 222.265 89.8186C223.132 89.8186 223.834 90.391 223.834 91.2958C223.834 92.0299 223.414 92.5561 222.874 92.8839C221.969 93.4333 221.429 93.9688 221.415 95.7276V95.783ZM222.006 98.516C222.463 98.516 222.837 98.1421 222.837 97.685C222.837 97.228 222.463 96.8541 222.006 96.8541C221.549 96.8541 221.175 97.228 221.175 97.685C221.175 98.1421 221.549 98.516 222.006 98.516Z" fill="#262B35"/>
<defs>
<filter id="filter0_d" x="0" y="0.442139" width="306" height="174" filterUnits="userSpaceOnUse" color-interpolation-filters="sRGB">
<feFlood flood-opacity="0" result="BackgroundImageFix"/>
<feColorMatrix in="SourceAlpha" type="matrix" values="0 0 0 0 0 0 0 0 0 0 0 0 0 0 0 0 0 0 127 0" result="hardAlpha"/>
<feOffset dy="12"/>
<feGaussianBlur stdDeviation="24"/>
<feColorMatrix type="matrix" values="0 0 0 0 0.171701 0 0 0 0 0.177292 0 0 0 0 0.191667 0 0 0 0.16 0"/>
<feBlend mode="normal" in2="BackgroundImageFix" result="effect1_dropShadow"/>
<feBlend mode="normal" in="SourceGraphic" in2="effect1_dropShadow" result="shape"/>
</filter>
</defs>
</svg>
