<svg width="316" height="195" viewBox="0 0 316 195" fill="none" xmlns="http://www.w3.org/2000/svg">
<g filter="url(#filter0_d)">
<path d="M268 58.4421C268 55.6807 265.761 53.4421 263 53.4421H91.6195L73.5508 36.4421L72.9154 53.4421H53C50.2386 53.4421 48 55.6807 48 58.4421V129.442C48 132.204 50.2386 134.442 53 134.442H263C265.761 134.442 268 132.204 268 129.442V58.4421Z" fill="white"/>
</g>
<path d="M67.0625 78.4421C69.9432 78.4421 71.5682 76.6509 71.5682 73.6964C71.5682 70.7603 69.9432 68.9876 67.1918 68.9876H64.1449V78.4421H67.0625ZM65.2898 77.4265V70.0032H67.1179C69.3338 70.0032 70.4602 71.4066 70.4602 73.6964C70.4602 76.0046 69.3338 77.4265 66.9886 77.4265H65.2898ZM76.2216 78.5899C78.142 78.5899 79.4347 77.1311 79.4347 74.9336C79.4347 72.7177 78.142 71.2589 76.2216 71.2589C74.3011 71.2589 73.0085 72.7177 73.0085 74.9336C73.0085 77.1311 74.3011 78.5899 76.2216 78.5899ZM76.2216 77.6112C74.7628 77.6112 74.098 76.3555 74.098 74.9336C74.098 73.5117 74.7628 72.2376 76.2216 72.2376C77.6804 72.2376 78.3452 73.5117 78.3452 74.9336C78.3452 76.3555 77.6804 77.6112 76.2216 77.6112ZM84.0708 78.5899C85.5111 78.5899 86.5637 77.8697 86.896 76.7987L85.8435 76.5032C85.5665 77.2419 84.9248 77.6112 84.0708 77.6112C82.792 77.6112 81.9102 76.7848 81.8595 75.266H87.0068V74.8044C87.0068 72.1637 85.4372 71.2589 83.96 71.2589C82.0395 71.2589 80.7654 72.7731 80.7654 74.9521C80.7654 77.1311 82.021 78.5899 84.0708 78.5899ZM81.8595 74.3242C81.9333 73.2209 82.7135 72.2376 83.96 72.2376C85.1418 72.2376 85.8989 73.124 85.8989 74.3242H81.8595ZM93.6869 72.9393C93.3453 71.9329 92.5789 71.2589 91.1755 71.2589C89.6798 71.2589 88.5718 72.1083 88.5718 73.3086C88.5718 74.2873 89.1535 74.9428 90.4553 75.2475L91.6372 75.5245C92.3527 75.6907 92.6897 76.0323 92.6897 76.5217C92.6897 77.1311 92.0434 77.6296 91.0278 77.6296C90.1368 77.6296 89.5782 77.2465 89.3843 76.4848L88.3502 76.7433C88.6041 77.9482 89.5967 78.5899 91.0463 78.5899C92.6943 78.5899 93.8161 77.6897 93.8161 76.4663C93.8161 75.4784 93.1975 74.8551 91.9326 74.5458L90.8801 74.2873C90.0399 74.0796 89.6613 73.798 89.6613 73.2532C89.6613 72.6438 90.3076 72.2007 91.1755 72.2007C92.1265 72.2007 92.5189 72.7269 92.7082 73.2163L93.6869 72.9393ZM99.1124 78.4421H100.202V71.3512H99.1124V78.4421ZM99.6664 70.1694C100.091 70.1694 100.442 69.837 100.442 69.4308C100.442 69.0245 100.091 68.6921 99.6664 68.6921C99.2417 68.6921 98.8908 69.0245 98.8908 69.4308C98.8908 69.837 99.2417 70.1694 99.6664 70.1694ZM105.281 71.3512H103.767V69.6524H102.677V71.3512H101.606V72.2745H102.677V76.7063C102.677 77.9436 103.675 78.5345 104.598 78.5345C105.004 78.5345 105.263 78.4606 105.41 78.4052L105.189 77.4265C105.097 77.445 104.949 77.4819 104.709 77.4819C104.229 77.4819 103.767 77.3342 103.767 76.4109V72.2745H105.281V71.3512ZM112.663 78.6083C113.9 78.6083 114.546 77.9436 114.768 77.4819H114.823V78.4421H115.913V73.7703C115.913 71.5174 114.196 71.2589 113.291 71.2589C112.22 71.2589 111.001 71.6282 110.447 72.9208L111.481 73.2901C111.721 72.7731 112.289 72.2191 113.328 72.2191C114.329 72.2191 114.823 72.75 114.823 73.6595V73.6964C114.823 74.2227 114.288 74.1765 112.995 74.3427C111.68 74.5135 110.244 74.8044 110.244 76.4294C110.244 77.8143 111.315 78.6083 112.663 78.6083ZM112.829 77.6296C111.961 77.6296 111.333 77.2419 111.333 76.4848C111.333 75.6538 112.09 75.3953 112.94 75.2845C113.402 75.2291 114.639 75.0998 114.823 74.8782V75.8754C114.823 76.7617 114.122 77.6296 112.829 77.6296ZM118.991 68.9876H117.901V78.4421H118.991V68.9876ZM123.959 78.5899C125.4 78.5899 126.452 77.8697 126.785 76.7987L125.732 76.5032C125.455 77.2419 124.813 77.6112 123.959 77.6112C122.681 77.6112 121.799 76.7848 121.748 75.266H126.896V74.8044C126.896 72.1637 125.326 71.2589 123.849 71.2589C121.928 71.2589 120.654 72.7731 120.654 74.9521C120.654 77.1311 121.91 78.5899 123.959 78.5899ZM121.748 74.3242C121.822 73.2209 122.602 72.2376 123.849 72.2376C125.03 72.2376 125.788 73.124 125.788 74.3242H121.748ZM128.553 78.4421H129.642V73.9549C129.642 72.9947 130.399 72.293 131.434 72.293C131.724 72.293 132.024 72.3484 132.098 72.3669V71.2589C131.974 71.2497 131.687 71.2404 131.526 71.2404C130.676 71.2404 129.938 71.7205 129.679 72.4223H129.605V71.3512H128.553V78.4421ZM136.918 71.3512H135.404V69.6524H134.314V71.3512H133.243V72.2745H134.314V76.7063C134.314 77.9436 135.311 78.5345 136.235 78.5345C136.641 78.5345 136.899 78.4606 137.047 78.4052L136.826 77.4265C136.733 77.445 136.585 77.4819 136.345 77.4819C135.865 77.4819 135.404 77.3342 135.404 76.4109V72.2745H136.918V71.3512ZM142.915 81.0828C143.898 81.0828 144.595 80.5611 145.001 79.4762L148.021 71.3697L146.829 71.3512L144.872 77.0018H144.798L142.841 71.3512H141.659L144.281 78.4791L144.078 79.033C143.69 80.0948 143.192 80.1964 142.398 79.9933L142.121 80.9535C142.231 81.0089 142.545 81.0828 142.915 81.0828ZM152.089 78.5899C154.009 78.5899 155.302 77.1311 155.302 74.9336C155.302 72.7177 154.009 71.2589 152.089 71.2589C150.168 71.2589 148.876 72.7177 148.876 74.9336C148.876 77.1311 150.168 78.5899 152.089 78.5899ZM152.089 77.6112C150.63 77.6112 149.965 76.3555 149.965 74.9336C149.965 73.5117 150.63 72.2376 152.089 72.2376C153.548 72.2376 154.212 73.5117 154.212 74.9336C154.212 76.3555 153.548 77.6112 152.089 77.6112ZM161.434 75.543C161.434 76.8725 160.418 77.4819 159.606 77.4819C158.701 77.4819 158.054 76.8171 158.054 75.783V71.3512H156.965V75.8569C156.965 77.6666 157.925 78.5345 159.255 78.5345C160.326 78.5345 161.027 77.962 161.36 77.2419H161.434V78.4421H162.523V71.3512H161.434V75.543ZM171.259 71.3512H169.744V69.6524H168.655V71.3512H167.584V72.2745H168.655V76.7063C168.655 77.9436 169.652 78.5345 170.575 78.5345C170.982 78.5345 171.24 78.4606 171.388 78.4052L171.166 77.4265C171.074 77.445 170.926 77.4819 170.686 77.4819C170.206 77.4819 169.744 77.3342 169.744 76.4109V72.2745H171.259V71.3512ZM175.702 78.5899C177.623 78.5899 178.915 77.1311 178.915 74.9336C178.915 72.7177 177.623 71.2589 175.702 71.2589C173.782 71.2589 172.489 72.7177 172.489 74.9336C172.489 77.1311 173.782 78.5899 175.702 78.5899ZM175.702 77.6112C174.243 77.6112 173.578 76.3555 173.578 74.9336C173.578 73.5117 174.243 72.2376 175.702 72.2376C177.161 72.2376 177.826 73.5117 177.826 74.9336C177.826 76.3555 177.161 77.6112 175.702 77.6112ZM184.234 78.4421H185.324V71.3512H184.234V78.4421ZM184.788 70.1694C185.213 70.1694 185.564 69.837 185.564 69.4308C185.564 69.0245 185.213 68.6921 184.788 68.6921C184.364 68.6921 184.013 69.0245 184.013 69.4308C184.013 69.837 184.364 70.1694 184.788 70.1694ZM187.319 78.4421H188.409V73.9549C188.409 72.9947 189.166 72.293 190.2 72.293C190.491 72.293 190.791 72.3484 190.865 72.3669V71.2589C190.74 71.2497 190.454 71.2404 190.292 71.2404C189.443 71.2404 188.704 71.7205 188.446 72.4223H188.372V71.3512H187.319V78.4421ZM192.156 78.4421H193.246V73.9549C193.246 72.9947 194.003 72.293 195.037 72.293C195.328 72.293 195.628 72.3484 195.702 72.3669V71.2589C195.577 71.2497 195.291 71.2404 195.129 71.2404C194.28 71.2404 193.541 71.7205 193.283 72.4223H193.209V71.3512H192.156V78.4421ZM199.75 78.5899C201.191 78.5899 202.243 77.8697 202.576 76.7987L201.523 76.5032C201.246 77.2419 200.604 77.6112 199.75 77.6112C198.472 77.6112 197.59 76.7848 197.539 75.266H202.687V74.8044C202.687 72.1637 201.117 71.2589 199.64 71.2589C197.719 71.2589 196.445 72.7731 196.445 74.9521C196.445 77.1311 197.701 78.5899 199.75 78.5899ZM197.539 74.3242C197.613 73.2209 198.393 72.2376 199.64 72.2376C200.821 72.2376 201.579 73.124 201.579 74.3242H197.539ZM207.206 81.249C208.905 81.249 210.271 80.4734 210.271 78.6453V71.3512H209.219V72.4776H209.108C208.868 72.1083 208.425 71.2589 207.04 71.2589C205.249 71.2589 204.011 72.6808 204.011 74.8598C204.011 77.0757 205.304 78.3313 207.021 78.3313C208.406 78.3313 208.85 77.5188 209.09 77.1311H209.182V78.5714C209.182 79.7532 208.351 80.2887 207.206 80.2887C205.918 80.2887 205.466 79.6101 205.175 79.2177L204.307 79.8271C204.75 80.5703 205.623 81.249 207.206 81.249ZM207.169 77.3527C205.803 77.3527 205.101 76.3186 205.101 74.8413C205.101 73.4009 205.784 72.2376 207.169 72.2376C208.499 72.2376 209.2 73.3086 209.2 74.8413C209.2 76.4109 208.48 77.3527 207.169 77.3527ZM216.734 75.543C216.734 76.8725 215.719 77.4819 214.906 77.4819C214.002 77.4819 213.355 76.8171 213.355 75.783V71.3512H212.266V75.8569C212.266 77.6666 213.226 78.5345 214.555 78.5345C215.627 78.5345 216.328 77.962 216.661 77.2419H216.734V78.4421H217.824V71.3512H216.734V75.543ZM220.909 68.9876H219.819V78.4421H220.909V68.9876ZM224.991 78.6083C226.228 78.6083 226.875 77.9436 227.096 77.4819H227.152V78.4421H228.241V73.7703C228.241 71.5174 226.524 71.2589 225.619 71.2589C224.548 71.2589 223.329 71.6282 222.775 72.9208L223.809 73.2901C224.049 72.7731 224.617 72.2191 225.656 72.2191C226.658 72.2191 227.152 72.75 227.152 73.6595V73.6964C227.152 74.2227 226.616 74.1765 225.323 74.3427C224.008 74.5135 222.572 74.8044 222.572 76.4294C222.572 77.8143 223.643 78.6083 224.991 78.6083ZM225.157 77.6296C224.289 77.6296 223.661 77.2419 223.661 76.4848C223.661 75.6538 224.419 75.3953 225.268 75.2845C225.73 75.2291 226.967 75.0998 227.152 74.8782V75.8754C227.152 76.7617 226.45 77.6296 225.157 77.6296ZM230.23 78.4421H231.319V73.9549C231.319 72.9947 232.076 72.293 233.11 72.293C233.401 72.293 233.701 72.3484 233.775 72.3669V71.2589C233.65 71.2497 233.364 71.2404 233.203 71.2404C232.353 71.2404 231.615 71.7205 231.356 72.4223H231.282V71.3512H230.23V78.4421ZM69.0199 92.9393C68.6783 91.9329 67.9119 91.2589 66.5085 91.2589C65.0128 91.2589 63.9048 92.1083 63.9048 93.3086C63.9048 94.2873 64.4865 94.9428 65.7884 95.2475L66.9702 95.5245C67.6857 95.6907 68.0227 96.0323 68.0227 96.5217C68.0227 97.1311 67.3764 97.6296 66.3608 97.6296C65.4698 97.6296 64.9112 97.2465 64.7173 96.4848L63.6832 96.7433C63.9371 97.9482 64.9297 98.5899 66.3793 98.5899C68.0273 98.5899 69.1491 97.6897 69.1491 96.4663C69.1491 95.4784 68.5305 94.8551 67.2656 94.5458L66.2131 94.2873C65.3729 94.0796 64.9943 93.798 64.9943 93.2532C64.9943 92.6438 65.6406 92.2007 66.5085 92.2007C67.4595 92.2007 67.8519 92.7269 68.0412 93.2163L69.0199 92.9393ZM71.4909 101.083C72.4742 101.083 73.1713 100.561 73.5775 99.4762L76.5967 91.3697L75.4056 91.3512L73.4482 97.0018H73.3744L71.417 91.3512H70.2352L72.8573 98.4791L72.6542 99.033C72.2664 100.095 71.7678 100.196 70.9738 99.9933L70.6968 100.954C70.8076 101.009 71.1215 101.083 71.4909 101.083ZM83.0609 92.9393C82.7193 91.9329 81.9529 91.2589 80.5495 91.2589C79.0538 91.2589 77.9458 92.1083 77.9458 93.3086C77.9458 94.2873 78.5275 94.9428 79.8294 95.2475L81.0112 95.5245C81.7267 95.6907 82.0637 96.0323 82.0637 96.5217C82.0637 97.1311 81.4174 97.6296 80.4018 97.6296C79.5108 97.6296 78.9522 97.2465 78.7583 96.4848L77.7243 96.7433C77.9782 97.9482 78.9707 98.5899 80.4203 98.5899C82.0684 98.5899 83.1902 97.6897 83.1902 96.4663C83.1902 95.4784 82.5716 94.8551 81.3066 94.5458L80.2541 94.2873C79.4139 94.0796 79.0353 93.798 79.0353 93.2532C79.0353 92.6438 79.6816 92.2007 80.5495 92.2007C81.5005 92.2007 81.8929 92.7269 82.0822 93.2163L83.0609 92.9393ZM87.914 91.3512H86.3998V89.6524H85.3103V91.3512H84.2393V92.2745H85.3103V96.7063C85.3103 97.9436 86.3074 98.5345 87.2307 98.5345C87.637 98.5345 87.8955 98.4606 88.0432 98.4052L87.8216 97.4265C87.7293 97.445 87.5816 97.4819 87.3415 97.4819C86.8614 97.4819 86.3998 97.3342 86.3998 96.4109V92.2745H87.914V91.3512ZM92.4497 98.5899C93.89 98.5899 94.9426 97.8697 95.2749 96.7987L94.2224 96.5032C93.9454 97.2419 93.3037 97.6112 92.4497 97.6112C91.1709 97.6112 90.2892 96.7848 90.2384 95.266H95.3857V94.8044C95.3857 92.1637 93.8161 91.2589 92.3389 91.2589C90.4184 91.2589 89.1443 92.7731 89.1443 94.9521C89.1443 97.1311 90.3999 98.5899 92.4497 98.5899ZM90.2384 94.3242C90.3122 93.2209 91.0924 92.2376 92.3389 92.2376C93.5207 92.2376 94.2778 93.124 94.2778 94.3242H90.2384ZM97.0431 98.4421H98.1325V94.0103C98.1325 92.9716 98.8896 92.2376 99.7391 92.2376C100.565 92.2376 101.142 92.7777 101.142 93.5856V98.4421H102.25V93.8257C102.25 92.9116 102.823 92.2376 103.82 92.2376C104.596 92.2376 105.26 92.6485 105.26 93.6964V98.4421H106.35V93.6964C106.35 92.0299 105.454 91.2589 104.189 91.2589C103.174 91.2589 102.43 91.7252 102.066 92.4592H101.992C101.641 91.7021 101.022 91.2589 100.09 91.2589C99.1666 91.2589 98.4834 91.7021 98.1879 92.4592H98.0956V91.3512H97.0431V98.4421ZM112.146 98.4421H113.198V97.3527H113.328C113.568 97.7404 114.029 98.5899 115.396 98.5899C117.169 98.5899 118.406 97.168 118.406 94.9152C118.406 92.6808 117.169 91.2589 115.377 91.2589C113.992 91.2589 113.568 92.1083 113.328 92.4776H113.235V88.9876H112.146V98.4421ZM113.217 94.8967C113.217 93.3086 113.919 92.2376 115.248 92.2376C116.633 92.2376 117.316 93.4009 117.316 94.8967C117.316 96.4109 116.615 97.6112 115.248 97.6112C113.937 97.6112 113.217 96.5032 113.217 94.8967ZM123.045 98.5899C124.486 98.5899 125.538 97.8697 125.871 96.7987L124.818 96.5032C124.541 97.2419 123.899 97.6112 123.045 97.6112C121.767 97.6112 120.885 96.7848 120.834 95.266H125.981V94.8044C125.981 92.1637 124.412 91.2589 122.935 91.2589C121.014 91.2589 119.74 92.7731 119.74 94.9521C119.74 97.1311 120.996 98.5899 123.045 98.5899ZM120.834 94.3242C120.908 93.2209 121.688 92.2376 122.935 92.2376C124.116 92.2376 124.873 93.124 124.873 94.3242H120.834ZM128.728 94.1765C128.728 92.9393 129.518 92.2376 130.593 92.2376C131.618 92.2376 132.237 92.8839 132.237 94.0103V98.4421H133.326V93.9365C133.326 92.1129 132.357 91.2589 130.907 91.2589C129.79 91.2589 129.153 91.7252 128.821 92.4592H128.728V88.9876H127.639V98.4421H128.728V94.1765ZM137.406 98.6083C138.643 98.6083 139.29 97.9436 139.511 97.4819H139.567V98.4421H140.656V93.7703C140.656 91.5174 138.939 91.2589 138.034 91.2589C136.963 91.2589 135.744 91.6282 135.19 92.9208L136.224 93.2901C136.464 92.7731 137.032 92.2191 138.071 92.2191C139.073 92.2191 139.567 92.75 139.567 93.6595V93.6964C139.567 94.2227 139.031 94.1765 137.738 94.3427C136.423 94.5135 134.987 94.8044 134.987 96.4294C134.987 97.8143 136.058 98.6083 137.406 98.6083ZM137.572 97.6296C136.704 97.6296 136.077 97.2419 136.077 96.4848C136.077 95.6538 136.834 95.3953 137.683 95.2845C138.145 95.2291 139.382 95.0998 139.567 94.8782V95.8754C139.567 96.7617 138.865 97.6296 137.572 97.6296ZM148.189 91.3512H147.007L145.05 97.0018H144.976L143.019 91.3512H141.837L144.459 98.4421H145.567L148.189 91.3512ZM149.627 98.4421H150.717V91.3512H149.627V98.4421ZM150.181 90.1694C150.606 90.1694 150.957 89.837 150.957 89.4308C150.957 89.0245 150.606 88.6921 150.181 88.6921C149.756 88.6921 149.405 89.0245 149.405 89.4308C149.405 89.837 149.756 90.1694 150.181 90.1694ZM155.593 98.5899C157.513 98.5899 158.806 97.1311 158.806 94.9336C158.806 92.7177 157.513 91.2589 155.593 91.2589C153.672 91.2589 152.38 92.7177 152.38 94.9336C152.38 97.1311 153.672 98.5899 155.593 98.5899ZM155.593 97.6112C154.134 97.6112 153.469 96.3555 153.469 94.9336C153.469 93.5117 154.134 92.2376 155.593 92.2376C157.051 92.2376 157.716 93.5117 157.716 94.9336C157.716 96.3555 157.051 97.6112 155.593 97.6112ZM160.469 98.4421H161.558V93.9549C161.558 92.9947 162.315 92.293 163.35 92.293C163.64 92.293 163.94 92.3484 164.014 92.3669V91.2589C163.89 91.2497 163.603 91.2404 163.442 91.2404C162.592 91.2404 161.854 91.7205 161.595 92.4223H161.521V91.3512H160.469V98.4421ZM170.328 92.9393C169.987 91.9329 169.221 91.2589 167.817 91.2589C166.321 91.2589 165.213 92.1083 165.213 93.3086C165.213 94.2873 165.795 94.9428 167.097 95.2475L168.279 95.5245C168.994 95.6907 169.331 96.0323 169.331 96.5217C169.331 97.1311 168.685 97.6296 167.669 97.6296C166.778 97.6296 166.22 97.2465 166.026 96.4848L164.992 96.7433C165.246 97.9482 166.238 98.5899 167.688 98.5899C169.336 98.5899 170.458 97.6897 170.458 96.4663C170.458 95.4784 169.839 94.8551 168.574 94.5458L167.522 94.2873C166.681 94.0796 166.303 93.798 166.303 93.2532C166.303 92.6438 166.949 92.2007 167.817 92.2007C168.768 92.2007 169.161 92.7269 169.35 93.2163L170.328 92.9393ZM178.838 91.3512H177.324V89.6524H176.234V91.3512H175.163V92.2745H176.234V96.7063C176.234 97.9436 177.231 98.5345 178.155 98.5345C178.561 98.5345 178.819 98.4606 178.967 98.4052L178.745 97.4265C178.653 97.445 178.505 97.4819 178.265 97.4819C177.785 97.4819 177.324 97.3342 177.324 96.4109V92.2745H178.838V91.3512ZM181.718 94.1765C181.718 92.9393 182.508 92.2376 183.584 92.2376C184.608 92.2376 185.227 92.8839 185.227 94.0103V98.4421H186.316V93.9365C186.316 92.1129 185.347 91.2589 183.897 91.2589C182.78 91.2589 182.143 91.7252 181.811 92.4592H181.718V88.9876H180.629V98.4421H181.718V94.1765ZM190.396 98.6083C191.634 98.6083 192.28 97.9436 192.501 97.4819H192.557V98.4421H193.646V93.7703C193.646 91.5174 191.929 91.2589 191.024 91.2589C189.953 91.2589 188.734 91.6282 188.18 92.9208L189.214 93.2901C189.455 92.7731 190.022 92.2191 191.061 92.2191C192.063 92.2191 192.557 92.75 192.557 93.6595V93.6964C192.557 94.2227 192.021 94.1765 190.729 94.3427C189.413 94.5135 187.977 94.8044 187.977 96.4294C187.977 97.8143 189.048 98.6083 190.396 98.6083ZM190.562 97.6296C189.695 97.6296 189.067 97.2419 189.067 96.4848C189.067 95.6538 189.824 95.3953 190.673 95.2845C191.135 95.2291 192.372 95.0998 192.557 94.8782V95.8754C192.557 96.7617 191.855 97.6296 190.562 97.6296ZM198.719 91.3512H197.204V89.6524H196.115V91.3512H195.044V92.2745H196.115V96.7063C196.115 97.9436 197.112 98.5345 198.035 98.5345C198.442 98.5345 198.7 98.4606 198.848 98.4052L198.626 97.4265C198.534 97.445 198.386 97.4819 198.146 97.4819C197.666 97.4819 197.204 97.3342 197.204 96.4109V92.2745H198.719V91.3512ZM207.098 91.3512H205.583V89.6524H204.494V91.3512H203.423V92.2745H204.494V96.7063C204.494 97.9436 205.491 98.5345 206.414 98.5345C206.821 98.5345 207.079 98.4606 207.227 98.4052L207.005 97.4265C206.913 97.445 206.765 97.4819 206.525 97.4819C206.045 97.4819 205.583 97.3342 205.583 96.4109V92.2745H207.098V91.3512ZM209.978 94.1765C209.978 92.9393 210.768 92.2376 211.843 92.2376C212.868 92.2376 213.487 92.8839 213.487 94.0103V98.4421H214.576V93.9365C214.576 92.1129 213.607 91.2589 212.157 91.2589C211.04 91.2589 210.403 91.7252 210.071 92.4592H209.978V88.9876H208.889V98.4421H209.978V94.1765ZM216.569 98.4421H217.659V93.9549C217.659 92.9947 218.416 92.293 219.45 92.293C219.741 92.293 220.041 92.3484 220.115 92.3669V91.2589C219.99 91.2497 219.704 91.2404 219.542 91.2404C218.693 91.2404 217.954 91.7205 217.696 92.4223H217.622V91.3512H216.569V98.4421ZM224.164 98.5899C225.604 98.5899 226.656 97.8697 226.989 96.7987L225.936 96.5032C225.659 97.2419 225.018 97.6112 224.164 97.6112C222.885 97.6112 222.003 96.7848 221.952 95.266H227.1V94.8044C227.1 92.1637 225.53 91.2589 224.053 91.2589C222.132 91.2589 220.858 92.7731 220.858 94.9521C220.858 97.1311 222.114 98.5899 224.164 98.5899ZM221.952 94.3242C222.026 93.2209 222.806 92.2376 224.053 92.2376C225.235 92.2376 225.992 93.124 225.992 94.3242H221.952ZM230.844 98.6083C232.081 98.6083 232.727 97.9436 232.949 97.4819H233.004V98.4421H234.094V93.7703C234.094 91.5174 232.376 91.2589 231.471 91.2589C230.4 91.2589 229.182 91.6282 228.628 92.9208L229.662 93.2901C229.902 92.7731 230.47 92.2191 231.508 92.2191C232.51 92.2191 233.004 92.75 233.004 93.6595V93.6964C233.004 94.2227 232.469 94.1765 231.176 94.3427C229.86 94.5135 228.425 94.8044 228.425 96.4294C228.425 97.8143 229.496 98.6083 230.844 98.6083ZM231.01 97.6296C230.142 97.6296 229.514 97.2419 229.514 96.4848C229.514 95.6538 230.271 95.3953 231.121 95.2845C231.582 95.2291 232.819 95.0998 233.004 94.8782V95.8754C233.004 96.7617 232.302 97.6296 231.01 97.6296ZM239.166 91.3512H237.652V89.6524H236.562V91.3512H235.491V92.2745H236.562V96.7063C236.562 97.9436 237.559 98.5345 238.483 98.5345C238.889 98.5345 239.147 98.4606 239.295 98.4052L239.074 97.4265C238.981 97.445 238.834 97.4819 238.593 97.4819C238.113 97.4819 237.652 97.3342 237.652 96.4109V92.2745H239.166V91.3512ZM243.702 98.5899C245.142 98.5899 246.195 97.8697 246.527 96.7987L245.474 96.5032C245.197 97.2419 244.556 97.6112 243.702 97.6112C242.423 97.6112 241.541 96.7848 241.49 95.266H246.638V94.8044C246.638 92.1637 245.068 91.2589 243.591 91.2589C241.67 91.2589 240.396 92.7731 240.396 94.9521C240.396 97.1311 241.652 98.5899 243.702 98.5899ZM241.49 94.3242C241.564 93.2209 242.344 92.2376 243.591 92.2376C244.773 92.2376 245.53 93.124 245.53 94.3242H241.49ZM249.384 94.1765C249.384 92.9393 250.151 92.2376 251.194 92.2376C252.205 92.2376 252.819 92.8977 252.819 94.0103V98.4421H253.909V93.9365C253.909 92.1268 252.944 91.2589 251.508 91.2589C250.437 91.2589 249.772 91.739 249.44 92.4592H249.348V91.3512H248.295V98.4421H249.384V94.1765ZM64.6989 121.083C65.6822 121.083 66.3793 120.561 66.7855 119.476L69.8047 111.37L68.6136 111.351L66.6562 117.002H66.5824L64.625 111.351H63.4432L66.0653 118.479L65.8622 119.033C65.4744 120.095 64.9759 120.196 64.1818 119.993L63.9048 120.954C64.0156 121.009 64.3295 121.083 64.6989 121.083ZM73.873 118.59C75.7934 118.59 77.086 117.131 77.086 114.934C77.086 112.718 75.7934 111.259 73.873 111.259C71.9525 111.259 70.6599 112.718 70.6599 114.934C70.6599 117.131 71.9525 118.59 73.873 118.59ZM73.873 117.611C72.4142 117.611 71.7494 116.355 71.7494 114.934C71.7494 113.512 72.4142 112.238 73.873 112.238C75.3318 112.238 75.9965 113.512 75.9965 114.934C75.9965 116.355 75.3318 117.611 73.873 117.611ZM83.2179 115.543C83.2179 116.873 82.2022 117.482 81.3897 117.482C80.4849 117.482 79.8386 116.817 79.8386 115.783V111.351H78.7491V115.857C78.7491 117.667 79.7093 118.534 81.0389 118.534C82.1099 118.534 82.8116 117.962 83.144 117.242H83.2179V118.442H84.3074V111.351H83.2179V115.543ZM86.3028 118.442H87.3923V113.955C87.3923 112.995 88.1494 112.293 89.1835 112.293C89.4743 112.293 89.7744 112.348 89.8483 112.367V111.259C89.7236 111.25 89.4374 111.24 89.2758 111.24C88.4264 111.24 87.6878 111.721 87.4292 112.422H87.3554V111.351H86.3028V118.442ZM95.8855 114.177C95.8855 112.939 96.6749 112.238 97.7505 112.238C98.7754 112.238 99.394 112.884 99.394 114.01V118.442H100.483V113.936C100.483 112.113 99.514 111.259 98.0645 111.259C96.9473 111.259 96.3102 111.725 95.9778 112.459H95.8855V108.988H94.796V118.442H95.8855V114.177ZM105.45 118.59C106.89 118.59 107.943 117.87 108.275 116.799L107.222 116.503C106.945 117.242 106.304 117.611 105.45 117.611C104.171 117.611 103.289 116.785 103.238 115.266H108.386V114.804C108.386 112.164 106.816 111.259 105.339 111.259C103.418 111.259 102.144 112.773 102.144 114.952C102.144 117.131 103.4 118.59 105.45 118.59ZM103.238 114.324C103.312 113.221 104.092 112.238 105.339 112.238C106.521 112.238 107.278 113.124 107.278 114.324H103.238ZM112.13 118.608C113.367 118.608 114.013 117.944 114.235 117.482H114.29V118.442H115.38V113.77C115.38 111.517 113.662 111.259 112.758 111.259C111.687 111.259 110.468 111.628 109.914 112.921L110.948 113.29C111.188 112.773 111.756 112.219 112.794 112.219C113.796 112.219 114.29 112.75 114.29 113.659V113.696C114.29 114.223 113.755 114.177 112.462 114.343C111.146 114.514 109.711 114.804 109.711 116.429C109.711 117.814 110.782 118.608 112.13 118.608ZM112.296 117.63C111.428 117.63 110.8 117.242 110.8 116.485C110.8 115.654 111.557 115.395 112.407 115.284C112.868 115.229 114.106 115.1 114.29 114.878V115.875C114.29 116.762 113.589 117.63 112.296 117.63ZM118.458 108.988H117.368V118.442H118.458V108.988ZM123.537 111.351H122.023V109.652H120.933V111.351H119.862V112.275H120.933V116.706C120.933 117.944 121.93 118.534 122.854 118.534C123.26 118.534 123.519 118.461 123.666 118.405L123.445 117.427C123.352 117.445 123.205 117.482 122.965 117.482C122.484 117.482 122.023 117.334 122.023 116.411V112.275H123.537V111.351ZM126.418 114.177C126.418 112.939 127.207 112.238 128.283 112.238C129.308 112.238 129.926 112.884 129.926 114.01V118.442H131.016V113.936C131.016 112.113 130.046 111.259 128.597 111.259C127.479 111.259 126.842 111.725 126.51 112.459H126.418V108.988H125.328V118.442H126.418V114.177ZM138.752 118.608C139.989 118.608 140.635 117.944 140.857 117.482H140.912V118.442H142.002V113.77C142.002 111.517 140.284 111.259 139.38 111.259C138.309 111.259 137.09 111.628 136.536 112.921L137.57 113.29C137.81 112.773 138.378 112.219 139.417 112.219C140.418 112.219 140.912 112.75 140.912 113.659V113.696C140.912 114.223 140.377 114.177 139.084 114.343C137.768 114.514 136.333 114.804 136.333 116.429C136.333 117.814 137.404 118.608 138.752 118.608ZM138.918 117.63C138.05 117.63 137.422 117.242 137.422 116.485C137.422 115.654 138.179 115.395 139.029 115.284C139.49 115.229 140.728 115.1 140.912 114.878V115.875C140.912 116.762 140.211 117.63 138.918 117.63ZM145.08 114.177C145.08 112.939 145.846 112.238 146.889 112.238C147.9 112.238 148.514 112.898 148.514 114.01V118.442H149.604V113.936C149.604 112.127 148.639 111.259 147.203 111.259C146.132 111.259 145.468 111.739 145.135 112.459H145.043V111.351H143.99V118.442H145.08V114.177ZM154.272 118.59C155.639 118.59 156.1 117.74 156.341 117.353H156.47V118.442H157.522V108.988H156.433V112.478H156.341C156.1 112.108 155.676 111.259 154.291 111.259C152.5 111.259 151.262 112.681 151.262 114.915C151.262 117.168 152.5 118.59 154.272 118.59ZM154.42 117.611C153.054 117.611 152.352 116.411 152.352 114.897C152.352 113.401 153.035 112.238 154.42 112.238C155.75 112.238 156.451 113.309 156.451 114.897C156.451 116.503 155.731 117.611 154.42 117.611ZM164.932 118.442H166.003L167.554 112.995H167.665L169.216 118.442H170.287L172.447 111.351H171.303L169.77 116.762H169.696L168.2 111.351H167.037L165.523 116.78H165.449L163.916 111.351H162.771L164.932 118.442ZM176.62 118.59C178.06 118.59 179.112 117.87 179.445 116.799L178.392 116.503C178.115 117.242 177.474 117.611 176.62 117.611C175.341 117.611 174.459 116.785 174.408 115.266H179.556V114.804C179.556 112.164 177.986 111.259 176.509 111.259C174.588 111.259 173.314 112.773 173.314 114.952C173.314 117.131 174.57 118.59 176.62 118.59ZM174.408 114.324C174.482 113.221 175.262 112.238 176.509 112.238C177.691 112.238 178.448 113.124 178.448 114.324H174.408ZM182.302 108.988H181.213V118.442H182.302V108.988ZM185.387 108.988H184.298V118.442H185.387V108.988ZM191.445 113.881H187.309V114.897H191.445V113.881ZM193.51 118.442H194.563V117.353H194.692C194.932 117.74 195.394 118.59 196.76 118.59C198.533 118.59 199.77 117.168 199.77 114.915C199.77 112.681 198.533 111.259 196.742 111.259C195.357 111.259 194.932 112.108 194.692 112.478H194.6V108.988H193.51V118.442ZM194.581 114.897C194.581 113.309 195.283 112.238 196.612 112.238C197.997 112.238 198.681 113.401 198.681 114.897C198.681 116.411 197.979 117.611 196.612 117.611C195.301 117.611 194.581 116.503 194.581 114.897ZM204.41 118.59C205.85 118.59 206.903 117.87 207.235 116.799L206.182 116.503C205.905 117.242 205.264 117.611 204.41 117.611C203.131 117.611 202.249 116.785 202.198 115.266H207.346V114.804C207.346 112.164 205.776 111.259 204.299 111.259C202.378 111.259 201.104 112.773 201.104 114.952C201.104 117.131 202.36 118.59 204.41 118.59ZM202.198 114.324C202.272 113.221 203.052 112.238 204.299 112.238C205.481 112.238 206.238 113.124 206.238 114.324H202.198ZM209.003 118.442H210.093V111.351H209.003V118.442ZM209.557 110.169C209.982 110.169 210.333 109.837 210.333 109.431C210.333 109.025 209.982 108.692 209.557 108.692C209.132 108.692 208.781 109.025 208.781 109.431C208.781 109.837 209.132 110.169 209.557 110.169ZM213.177 114.177C213.177 112.939 213.944 112.238 214.987 112.238C215.998 112.238 216.612 112.898 216.612 114.01V118.442H217.702V113.936C217.702 112.127 216.737 111.259 215.301 111.259C214.23 111.259 213.565 111.739 213.233 112.459H213.141V111.351H212.088V118.442H213.177V114.177ZM222.555 121.249C224.254 121.249 225.62 120.473 225.62 118.645V111.351H224.567V112.478H224.457C224.217 112.108 223.773 111.259 222.388 111.259C220.597 111.259 219.36 112.681 219.36 114.86C219.36 117.076 220.653 118.331 222.37 118.331C223.755 118.331 224.198 117.519 224.438 117.131H224.531V118.571C224.531 119.753 223.7 120.289 222.555 120.289C221.267 120.289 220.814 119.61 220.523 119.218L219.656 119.827C220.099 120.57 220.971 121.249 222.555 121.249ZM222.518 117.353C221.151 117.353 220.45 116.319 220.45 114.841C220.45 113.401 221.133 112.238 222.518 112.238C223.847 112.238 224.549 113.309 224.549 114.841C224.549 116.411 223.829 117.353 222.518 117.353ZM229.036 115.783H230.144V115.728C230.163 114.583 230.458 114.084 231.271 113.576C232.083 113.082 232.563 112.371 232.563 111.351C232.563 109.911 231.511 108.858 229.886 108.858C228.39 108.858 227.203 109.782 227.134 111.351H228.298C228.367 110.262 229.129 109.819 229.886 109.819C230.754 109.819 231.455 110.391 231.455 111.296C231.455 112.03 231.035 112.556 230.495 112.884C229.59 113.433 229.05 113.969 229.036 115.728V115.783ZM229.627 118.516C230.084 118.516 230.458 118.142 230.458 117.685C230.458 117.228 230.084 116.854 229.627 116.854C229.17 116.854 228.796 117.228 228.796 117.685C228.796 118.142 229.17 118.516 229.627 118.516Z" fill="#262B35"/>
<defs>
<filter id="filter0_d" x="0" y="0.442139" width="316" height="194" filterUnits="userSpaceOnUse" color-interpolation-filters="sRGB">
<feFlood flood-opacity="0" result="BackgroundImageFix"/>
<feColorMatrix in="SourceAlpha" type="matrix" values="0 0 0 0 0 0 0 0 0 0 0 0 0 0 0 0 0 0 127 0" result="hardAlpha"/>
<feOffset dy="12"/>
<feGaussianBlur stdDeviation="24"/>
<feColorMatrix type="matrix" values="0 0 0 0 0.171701 0 0 0 0 0.177292 0 0 0 0 0.191667 0 0 0 0.16 0"/>
<feBlend mode="normal" in2="BackgroundImageFix" result="effect1_dropShadow"/>
<feBlend mode="normal" in="SourceGraphic" in2="effect1_dropShadow" result="shape"/>
</filter>
</defs>
</svg>
