<svg width="13" height="19" viewBox="0 0 13 19" fill="none" xmlns="http://www.w3.org/2000/svg">
<path opacity="0.1" d="M8.16433 18.0364H5.16436V15.0799H8.16433V18.0364ZM8.11919 13.5812H5.19309C5.19309 8.99039 9.55556 9.2573 9.55556 6.35008C9.55559 5.96983 9.4802 5.59336 9.33378 5.24247C9.18737 4.89158 8.97284 4.57324 8.70259 4.3059C8.43234 4.03856 8.11176 3.82752 7.75942 3.68501C7.40709 3.54251 7.02999 3.47137 6.64998 3.47572C5.88043 3.49159 5.14707 3.80564 4.60433 4.35175C4.0616 4.89786 3.75185 5.6334 3.74032 6.40347H0.830627C0.864591 4.88607 1.48938 3.44192 2.57189 2.37867C3.65439 1.31542 5.10905 0.717115 6.62596 0.711226C8.14286 0.705337 9.60211 1.29233 10.6928 2.34714C11.7835 3.40195 12.4195 4.84121 12.4652 6.35829C12.4816 9.96767 8.11919 10.3988 8.11919 13.5812Z" fill="#008EFF"/>
</svg>
