<svg width="13" height="18" viewBox="0 0 13 18" fill="none" xmlns="http://www.w3.org/2000/svg">
<path opacity="0.1" d="M8.03099 17.5386H5.03103V14.5821H8.03099V17.5386ZM7.98585 13.0833H5.07617C5.07617 8.48846 9.44274 8.75945 9.44274 5.85224C9.43731 5.08518 9.12783 4.35164 8.58228 3.81271C8.03673 3.27378 7.29969 2.97351 6.53305 2.97788C5.76318 2.99273 5.02924 3.30646 4.48629 3.85279C3.94333 4.39911 3.6339 5.13524 3.6234 5.90562H0.713715C0.747678 4.38823 1.37247 2.9441 2.45497 1.88085C3.53747 0.817604 4.99213 0.219312 6.50903 0.213423C8.02594 0.207534 9.48518 0.794513 10.5759 1.84932C11.6666 2.90413 12.3026 4.34338 12.3483 5.86046C12.3647 9.48626 8.00226 9.901 8.00226 13.0833H7.98585Z" fill="#008EFF"/>
</svg>
