<svg width="29" height="44" viewBox="0 0 29 44" fill="none" xmlns="http://www.w3.org/2000/svg">
    <path id='green-mark' class="v1-style" opacity="0.1" d="M18.3818 43.3874H11.0601V36.1522H18.3818V43.3874ZM18.271 32.5059H11.1709C11.1709 21.2958 21.821 21.9487 21.821 14.849C21.8172 13.9201 21.6306 13.001 21.2717 12.1443C20.9128 11.2876 20.3887 10.5101 19.7293 9.85607C19.0699 9.20209 18.2883 8.6845 17.4289 8.33289C16.5695 7.98127 15.6494 7.80251 14.721 7.80684C12.846 7.85017 11.0607 8.6186 9.73987 9.95082C8.41907 11.283 7.66548 13.0754 7.63733 14.9517H0.537292C0.584407 
    11.2235 2.09394 7.66323 4.74046 5.03836C7.38697 2.41349 10.9585 0.934331 14.6849 
    0.919786C18.4114 0.905241 21.9943 2.35647 24.6612 4.9606C27.3281 7.56473 28.8654 
    11.1132 28.9415 14.8408C28.921 23.7103 18.271 24.7204 18.271 32.4894V32.5059Z" 
    fill="#008EFF"/>
</svg>
