<svg width="62" height="91" viewBox="0 0 62 91" fill="none" xmlns="http://www.w3.org/2000/svg">
<path d="M38.6539 87.5687C38.6527 89.2247 37.3099 90.5665 35.6539 90.5665H26.1034C24.4465 90.5665 23.1034 89.2234 23.1034 87.5665V78.2371C23.1034 76.5802 24.4465 75.2371 26.1034 75.2371H35.6608C37.3185 75.2371 38.662 76.5816 38.6608 78.2393L38.6539 87.5687ZM38.427 67.4532H26.3282C24.6713 67.4532 23.3112 66.0917 23.4567 64.4413C25.2828 43.7222 45.9595 44.358 45.9595 29.9527C45.9595 21.6515 39.1688 15.0011 30.872 15.0011C23.6208 15.0011 17.5218 20.4776 16.0996 27.2103C15.7571 28.8314 14.4435 30.1889 12.7866 30.1889H3.69394C2.03909 30.1889 0.681285 28.8456 0.842552 27.1987C1.13054 24.2576 1.84988 21.3693 2.98198 18.628C4.4959 14.9623 6.71816 11.6316 9.52132 8.82695C12.3245 6.0223 15.6534 3.79887 19.3172 2.28415C22.9811 0.769437 26.9077 -0.00676933 30.872 4.44737e-05C47.5375 4.44737e-05 61.0448 13.3031 61.0448 29.9527C61.0448 48.793 38.4263 50.942 38.4157 67.4416C38.4157 67.4478 38.4208 67.4532 38.427 67.4532Z" fill="#1ECE7A"/>
</svg>
