<svg width="22" height="32" viewBox="0 0 22 32" fill="none" xmlns="http://www.w3.org/2000/svg">
<path opacity="0.1" d="M13.5299 31.6696H8.22353V26.4506H13.5299V31.6696ZM13.4519 23.7816H8.30561C8.30561 15.6594 16.0251 16.1316 16.0251 10.9906C16.0218 10.3177 15.8862 9.6519 15.6258 9.03139C15.3654 8.41088 14.9855 7.84777 14.5076 7.3742C14.0297 6.90062 13.4633 6.52586 12.8406 6.27132C12.218 6.01678 11.5514 5.88743 10.8788 5.89067C9.51685 5.91823 8.21889 6.47405 7.25874 7.44088C6.29859 8.4077 5.75135 9.70991 5.73247 11.0727H0.586142C0.575257 8.34143 1.64923 5.71765 3.57178 3.77862C5.49432 1.83958 8.10797 0.744127 10.8377 0.733236C13.5675 0.722346 16.1898 1.79692 18.1277 3.72055C20.0657 5.64418 21.1605 8.25931 21.1714 10.9906C21.1632 17.4169 13.4519 18.1519 13.4519 23.7816Z" fill="#008EFF"/>
</svg>
