<svg width="30" height="43" viewBox="0 0 30 43" fill="none" xmlns="http://www.w3.org/2000/svg">
<path opacity="0.1" d="M18.5761 42.9647H11.2545V35.7501H18.5761V42.9647ZM18.4694 32.0873H11.3694C11.3694 20.8732 22.0194 21.5302 22.0194 14.4305C22.0157 13.5017 21.829 12.5829 21.47 11.7264C21.1111 10.8699 20.5869 10.0926 19.9275 9.43894C19.2681 8.78528 18.4864 8.26809 17.627 7.91692C16.7677 7.56575 15.8476 7.38751 14.9194 7.39237C13.0365 7.42631 11.2407 8.19171 9.91183 9.52668C8.58293 10.8617 7.82516 12.6615 7.79883 14.5454H0.698792C0.745906 10.8173 2.25544 7.25697 4.90196 4.63211C7.54847 2.00724 11.12 0.528081 14.8464 0.513536C18.5729 0.498991 22.1558 1.95022 24.8227 4.55435C27.4896 7.15847 29.0269 10.7069 29.103 14.4346C29.1154 23.304 18.4694 24.3183 18.4694 32.0873Z" fill="#008EFF"/>
</svg>
